<svg width="10" height="5" viewBox="0 0 10 5" fill="none" xmlns="http://www.w3.org/2000/svg">
<path d="M5.01389 4.6552C4.84573 4.6552 4.67758 4.59691 4.53746 4.46577L0.782066 0.793668C0.683978 0.691666 0.683978 0.531376 0.768054 0.429373C0.866142 0.32737 1.02028 0.32737 1.11837 0.414801L4.87376 4.0869C4.94382 4.15976 5.06994 4.15976 5.15401 4.0869L8.9094 0.414801C9.00749 0.312799 9.16163 0.32737 9.25972 0.429373C9.35781 0.531376 9.34379 0.691666 9.24571 0.793668L5.49032 4.45119C5.35019 4.58234 5.18204 4.6552 5.01389 4.6552Z" fill="#212B36"/>
<path fill-rule="evenodd" clip-rule="evenodd" d="M4.2964 4.7123L0.533416 1.03278C0.309108 0.799518 0.311123 0.441625 0.501986 0.210066L0.510377 0.199887L0.519521 0.190377C0.75031 -0.0496206 1.11593 -0.0492601 1.3478 0.157409L1.35374 0.162706L5.01389 3.74167L8.66526 0.171283C8.92468 -0.0932889 9.30292 -0.0231515 9.50825 0.190377C9.75763 0.449704 9.69644 0.822388 9.49424 1.03266L9.48641 1.04081L5.72597 4.70299C5.53302 4.88357 5.28359 5 5.01389 5C4.76286 5 4.50915 4.91153 4.30185 4.71751L4.2964 4.7123ZM8.9094 0.414801L5.15401 4.0869C5.06994 4.15976 4.94382 4.15976 4.87376 4.0869L1.11837 0.414801C1.02028 0.32737 0.866142 0.32737 0.768054 0.429373C0.683978 0.531376 0.683978 0.691666 0.782066 0.793668L4.53746 4.46577C4.67758 4.59691 4.84573 4.6552 5.01389 4.6552C5.18204 4.6552 5.35019 4.58234 5.49032 4.45119L9.24571 0.793668C9.34379 0.691666 9.35781 0.531376 9.25972 0.429373C9.16163 0.32737 9.00749 0.312799 8.9094 0.414801Z" fill="#212B36"/>
</svg>
