<svg width="10" height="6" viewBox="0 0 10 6" fill="none" xmlns="http://www.w3.org/2000/svg">
<path d="M4.65207 5.1552C4.48392 5.1552 4.31577 5.09691 4.17564 4.96577L0.42025 1.29367C0.322161 1.19167 0.322161 1.03138 0.406237 0.929373C0.504326 0.82737 0.658465 0.82737 0.756553 0.914801L4.51194 4.5869C4.58201 4.65976 4.70812 4.65976 4.7922 4.5869L8.54759 0.914801C8.64567 0.812799 8.79981 0.82737 8.8979 0.929373C8.99599 1.03138 8.98198 1.19167 8.88389 1.29367L5.1285 4.95119C4.98837 5.08234 4.82022 5.1552 4.65207 5.1552Z" fill="#637381"/>
<path fill-rule="evenodd" clip-rule="evenodd" d="M3.93458 5.2123L0.1716 1.53278C-0.0527085 1.29952 -0.0506931 0.941625 0.14017 0.710066L0.148561 0.699887L0.157705 0.690377C0.388493 0.450379 0.754118 0.45074 0.985979 0.657409L0.991922 0.662706L4.65207 4.24167L8.30344 0.671283C8.56287 0.406711 8.9411 0.476849 9.14643 0.690377C9.39581 0.949704 9.33463 1.32239 9.13242 1.53266L9.12459 1.54081L5.36416 5.20299C5.17121 5.38357 4.92178 5.5 4.65207 5.5C4.40104 5.5 4.14734 5.41153 3.94003 5.21751L3.93458 5.2123ZM8.54759 0.914801L4.7922 4.5869C4.70812 4.65976 4.58201 4.65976 4.51194 4.5869L0.756553 0.914801C0.658465 0.82737 0.504326 0.82737 0.406237 0.929373C0.322161 1.03138 0.322161 1.19167 0.42025 1.29367L4.17564 4.96577C4.31577 5.09691 4.48392 5.1552 4.65207 5.1552C4.82022 5.1552 4.98837 5.08234 5.1285 4.95119L8.88389 1.29367C8.98198 1.19167 8.99599 1.03138 8.8979 0.929373C8.79981 0.82737 8.64567 0.812799 8.54759 0.914801Z" fill="#637381"/>
</svg>
