<svg width="20" height="22" viewBox="0 0 20 22" fill="none" xmlns="http://www.w3.org/2000/svg">
<path d="M18.6973 6.77189H17.666L15.3285 0.825019C15.191 0.515644 14.8473 0.378144 14.5379 0.481269C14.2285 0.618769 14.091 0.962519 14.1941 1.27189L16.3598 6.80627H3.60664L5.77227 1.27189C5.90977 0.962519 5.73789 0.618769 5.42852 0.481269C5.11914 0.343769 4.77539 0.515644 4.63789 0.825019L2.30039 6.77189H1.26914C0.753516 6.77189 0.306641 7.18439 0.306641 7.7344V10.6563C0.306641 11.1719 0.719141 11.6188 1.26914 11.6188H1.30352L2.19727 19.4563C2.33477 20.6594 3.36602 21.5875 4.60352 21.5875H15.3285C16.566 21.5875 17.5973 20.6594 17.7348 19.4563L18.6285 11.6188H18.6629C19.1785 11.6188 19.6254 11.2063 19.6254 10.6563V7.7344C19.6598 7.21877 19.2473 6.77189 18.6973 6.77189ZM1.54414 7.97502H18.4566V10.3813H1.54414V7.97502ZM16.566 19.2844C16.4973 19.9031 15.9816 20.35 15.3629 20.35H4.63789C4.01914 20.35 3.50352 19.9031 3.43477 19.2844L2.54102 11.5844H17.4598L16.566 19.2844Z" fill="#212B36"/>
<path d="M6.39121 17.4625C6.73496 17.4625 7.00996 17.1875 7.00996 16.8438V14.1969C7.00996 13.8531 6.73496 13.5781 6.39121 13.5781C6.04746 13.5781 5.77246 13.8531 5.77246 14.1969V16.8438C5.77246 17.1875 6.04746 17.4625 6.39121 17.4625Z" fill="#212B36"/>
<path d="M13.61 17.4625C13.9537 17.4625 14.2287 17.1875 14.2287 16.8438V14.1969C14.2287 13.8531 13.9537 13.5781 13.61 13.5781C13.2662 13.5781 12.9912 13.8531 12.9912 14.1969V16.8438C13.0256 17.1875 13.3006 17.4625 13.61 17.4625Z" fill="#212B36"/>
</svg>
