<svg width="20" height="18" viewBox="0 0 20 18" fill="none" xmlns="http://www.w3.org/2000/svg">
<path d="M10 17.4616C9.63738 17.4616 9.24452 17.3378 8.97254 17.0594C8.27749 16.4406 7.58243 15.8528 6.97804 15.3269C5.19507 13.78 3.65386 12.4496 2.56595 11.1193C1.29672 9.5724 0.692323 8.08738 0.692323 6.44767C0.692323 4.83889 1.23628 3.35387 2.23353 2.27104C3.23078 1.15727 4.62089 0.538514 6.13188 0.538514C7.25001 0.538514 8.30771 0.90977 9.2143 1.62134C9.48628 1.83791 9.75826 2.08541 10 2.36386C10.2418 2.08541 10.5137 1.83791 10.7857 1.62134C11.6923 0.90977 12.7198 0.538514 13.8681 0.538514C15.3791 0.538514 16.739 1.15727 17.7665 2.27104C18.7637 3.35387 19.3077 4.83889 19.3077 6.44767C19.3077 8.08738 18.7033 9.5724 17.4341 11.1193C16.3462 12.4496 14.805 13.78 13.022 15.3269C12.4176 15.8528 11.7225 16.4406 11.0275 17.0594C10.7555 17.3069 10.3627 17.4616 10 17.4616ZM6.13188 1.59041C4.92309 1.59041 3.80496 2.08541 3.01925 2.98261C2.20331 3.87982 1.78023 5.0864 1.78023 6.41673C1.78023 7.778 2.29397 9.04646 3.38188 10.4077C4.40936 11.6762 5.92034 12.9756 7.67309 14.4915C8.27749 15.0175 8.97254 15.6053 9.6676 16.255C9.84891 16.4097 10.1511 16.4097 10.3324 16.255C11.0577 15.6362 11.7225 15.0175 12.3269 14.4915C14.0797 12.9756 15.5907 11.6762 16.6181 10.4077C17.7061 9.04646 18.2198 7.778 18.2198 6.41673C18.2198 5.0864 17.7665 3.87982 16.9808 2.98261C16.1648 2.08541 15.0769 1.59041 13.8681 1.59041C12.9616 1.59041 12.1456 1.86885 11.4506 2.45667C11.1484 2.67323 10.9066 2.95168 10.6346 3.26106C10.4835 3.44668 10.2418 3.57044 10 3.57044C9.75826 3.57044 9.5165 3.44668 9.3654 3.26106C9.12364 2.95168 8.85166 2.67323 8.54946 2.45667C7.85441 1.89979 7.03848 1.59041 6.13188 1.59041Z" fill="#212B36"/>
<path fill-rule="evenodd" clip-rule="evenodd" d="M9.37242 1.42276C9.58448 1.59161 9.79841 1.78015 10 1.98853C10.2016 1.78015 10.4155 1.59161 10.6276 1.42276L10.629 1.42165C11.5782 0.676628 12.6604 0.284668 13.8681 0.284668C15.4528 0.284668 16.8795 0.935154 17.9531 2.09892C18.9981 3.23363 19.5615 4.78235 19.5615 6.44767C19.5615 8.15927 18.9275 9.69928 17.6306 11.28C16.5473 12.6047 15.0258 13.9246 13.2916 15.429L13.1886 15.5184C12.979 15.7007 12.7598 15.8895 12.534 16.0839C12.1047 16.4535 11.6519 16.8434 11.1973 17.2481C10.8798 17.5365 10.427 17.7154 10 17.7154C9.5887 17.7154 9.12746 17.5769 8.79746 17.2434C8.34461 16.8404 7.89362 16.4521 7.46598 16.0839C7.24024 15.8895 7.02102 15.7008 6.81145 15.5184C6.77702 15.4885 6.74267 15.4587 6.70841 15.429C4.97429 13.9246 3.45283 12.6048 2.36956 11.2801C1.07258 9.69937 0.438477 8.15932 0.438477 6.44767C0.438477 4.78299 1.00134 3.23498 2.0456 2.10039C3.0914 0.933146 4.55001 0.284668 6.13188 0.284668C7.30864 0.284668 8.42116 0.676117 9.37103 1.42166L9.37242 1.42276ZM2.23353 2.27104C1.23628 3.35387 0.692323 4.83889 0.692323 6.44767C0.692323 8.08738 1.29672 9.5724 2.56595 11.1193C3.63528 12.4269 5.14256 13.7345 6.88689 15.2478L6.97804 15.3269C7.18561 15.5075 7.40388 15.6954 7.62916 15.8894C8.05985 16.2602 8.5162 16.6531 8.97254 17.0594C9.24452 17.3378 9.63738 17.4616 10 17.4616C10.3627 17.4616 10.7555 17.3069 11.0275 17.0594C11.4838 16.6531 11.9402 16.2602 12.3709 15.8894C12.5962 15.6954 12.8144 15.5075 13.022 15.3269L13.1131 15.2478C14.8575 13.7345 16.3647 12.4269 17.4341 11.1193C18.7033 9.5724 19.3077 8.08738 19.3077 6.44767C19.3077 4.83889 18.7637 3.35387 17.7665 2.27104C16.739 1.15727 15.3791 0.538514 13.8681 0.538514C12.7198 0.538514 11.6923 0.90977 10.7857 1.62134C10.5767 1.78776 10.3677 1.97245 10.1725 2.1754C10.1136 2.23656 10.056 2.29938 10 2.36386C9.94403 2.29938 9.88643 2.23656 9.82758 2.1754C9.63229 1.97245 9.4233 1.78776 9.2143 1.62134C8.30771 0.90977 7.25001 0.538514 6.13188 0.538514C4.62089 0.538514 3.23078 1.15727 2.23353 2.27104ZM3.20705 3.1534C2.43953 3.99736 2.03408 5.14017 2.03408 6.41673C2.03408 7.705 2.51727 8.91905 3.57963 10.2486C4.57324 11.475 6.0317 12.7364 7.75345 14.2254L7.83915 14.2995C7.96518 14.4092 8.09618 14.5225 8.23005 14.6382C8.73302 15.073 9.28478 15.5499 9.83582 16.0648C9.92305 16.1356 10.0824 16.1346 10.1677 16.0619C10.5919 15.7 10.9874 15.3452 11.3658 15.0058C11.6381 14.7615 11.9015 14.5252 12.1603 14.3L12.2466 14.2254C13.9684 12.7364 15.4268 11.475 16.4204 10.2485C17.4828 8.91903 17.9659 7.70498 17.9659 6.41673C17.9659 5.14518 17.5333 3.99973 16.7914 3.15166C16.0223 2.30685 15.0025 1.84425 13.8681 1.84425C13.0176 1.84425 12.2608 2.10389 11.6145 2.65049L11.6067 2.65707L11.5984 2.663C11.3279 2.85686 11.1078 3.10724 10.8361 3.41639L10.8282 3.42529C10.6324 3.66346 10.322 3.82428 10 3.82428C9.67628 3.82428 9.36417 3.66166 9.16853 3.42131L9.16534 3.41739C8.93436 3.12181 8.67932 2.86203 8.4016 2.663L8.39606 2.65903L8.39074 2.65477C7.7376 2.13147 6.97689 1.84425 6.13188 1.84425C4.99394 1.84425 3.94622 2.30941 3.21021 3.14985L3.20705 3.1534ZM10.6346 3.26106L10.6556 3.23725C10.9191 2.9374 11.1561 2.66767 11.4506 2.45667C12.1456 1.86885 12.9616 1.59041 13.8681 1.59041C15.0769 1.59041 16.1648 2.08541 16.9808 2.98261C17.7665 3.87982 18.2198 5.0864 18.2198 6.41673C18.2198 7.778 17.7061 9.04646 16.6181 10.4077C15.6102 11.6521 14.1368 12.9263 12.4264 14.4055L12.3269 14.4915C12.0755 14.7103 11.8136 14.9452 11.5412 15.1895C11.1589 15.5323 10.756 15.8937 10.3324 16.255C10.1511 16.4097 9.84891 16.4097 9.6676 16.255C9.11883 15.7421 8.57007 15.2677 8.06592 14.8319C7.93153 14.7157 7.8003 14.6022 7.67309 14.4915L7.57362 14.4055C5.8632 12.9263 4.38987 11.6521 3.38188 10.4077C2.29397 9.04646 1.78023 7.778 1.78023 6.41673C1.78023 5.0864 2.20331 3.87982 3.01925 2.98261C3.80496 2.08541 4.92309 1.59041 6.13188 1.59041C7.03848 1.59041 7.85441 1.89979 8.54946 2.45667C8.85166 2.67323 9.12364 2.95168 9.3654 3.26106C9.5165 3.44668 9.75826 3.57044 10 3.57044C10.2418 3.57044 10.4835 3.44668 10.6346 3.26106Z" fill="#212B36"/>
</svg>
