<svg width="168" height="42" viewBox="0 0 168 42" fill="none" xmlns="http://www.w3.org/2000/svg">
<g clip-path="url(#clip0_140_352)">
<path opacity="0.72" d="M41.9328 19.2696C41.9122 19.0601 41.8152 18.8655 41.6603 18.723C41.5054 18.5805 41.3033 18.4999 41.0928 18.4968H20.1601C19.5916 18.5107 19.0367 18.6731 18.5504 18.9678C18.0642 19.2625 17.6634 19.6793 17.3881 20.1768C17.1331 20.6218 16.999 21.1256 16.999 21.6384C16.999 22.1512 17.1331 22.6551 17.3881 23.1C17.4608 23.2399 17.5688 23.3585 17.7014 23.4439C17.834 23.5293 17.9865 23.5787 18.144 23.5872H41.1433C41.3538 23.5841 41.5558 23.5036 41.7107 23.3611C41.8657 23.2185 41.9627 23.0239 41.9833 22.8144C41.9833 22.1592 41.9833 21.6048 41.9833 21.1344C41.9833 20.664 41.9832 19.908 41.9328 19.2696Z" fill="#3056D3"/>
<path d="M41.9161 19.2696C41.8994 19.0616 41.806 18.8671 41.6538 18.7243C41.5016 18.5814 41.3016 18.5003 41.0929 18.4968H37.7329C37.6151 18.4982 37.4987 18.5243 37.3917 18.5735C37.2846 18.6227 37.1891 18.6939 37.1113 18.7824C37.033 18.8676 36.9743 18.9689 36.9395 19.0792C36.9046 19.1895 36.8945 19.3061 36.9097 19.4208C36.9097 19.9584 36.9097 20.496 36.9097 21.1008C36.9055 23.7816 36.2261 26.4181 34.9342 28.7671C33.6423 31.116 31.7794 33.1017 29.5177 34.5408C29.2825 34.692 29.0642 34.8768 28.8122 35.0112C27.5794 35.7133 26.2568 36.2445 24.8809 36.5904L27.0818 40.5048C27.1565 40.6343 27.2644 40.7414 27.3943 40.8152C27.5242 40.8891 27.6714 40.9269 27.8209 40.9248C27.9097 40.9409 28.0008 40.9409 28.0897 40.9248L28.6272 40.7064L29.1145 40.5048C29.8576 40.1962 30.5814 39.8427 31.2818 39.4464C34.5573 37.6013 37.2788 34.9127 39.1637 31.6599C41.0486 28.4072 42.028 24.7089 42.0002 20.9496C42.0002 20.328 41.9665 19.8408 41.9161 19.2696Z" fill="#3056D3"/>
<path d="M30.0246 35.2156C29.9117 35.0239 29.7322 34.8804 29.5205 34.8124H29.2853C29.1394 34.8135 28.9958 34.848 28.8653 34.9132C26.4697 36.2763 23.7592 36.9887 21.003 36.9796C16.7729 36.9707 12.7185 35.2864 9.72738 32.2952C6.73622 29.304 5.05187 25.2497 5.04299 21.0196C5.05187 16.7895 6.73622 12.7351 9.72738 9.74396C12.7185 6.7528 16.7729 5.06846 21.003 5.05958C23.7579 5.06046 26.4659 5.7722 28.8653 7.12597C28.9907 7.20558 29.1368 7.24648 29.2853 7.24357H29.47C29.5852 7.21815 29.694 7.16922 29.7894 7.09984C29.8848 7.03046 29.9649 6.94213 30.0246 6.84038L31.7046 3.91718C31.8156 3.72276 31.8462 3.49259 31.7897 3.27594C31.7332 3.05929 31.594 2.87337 31.4021 2.75798C28.2398 0.97099 24.6689 0.0333629 21.0366 0.0363842C15.4698 0.0452698 10.1335 2.26062 6.19717 6.19696C2.26083 10.1333 0.0455067 15.4696 0.0366211 21.0364C0.0455067 26.6032 2.26083 31.9395 6.19717 35.8758C10.1335 39.8121 15.4698 42.0275 21.0366 42.0364C24.6689 42.0394 28.2398 41.1018 31.4021 39.3148C31.4982 39.2608 31.5825 39.1881 31.65 39.101C31.7175 39.0139 31.7668 38.9141 31.795 38.8076C31.8232 38.701 31.8298 38.5899 31.8143 38.4808C31.7987 38.3717 31.7614 38.2668 31.7046 38.1724L30.0246 35.2156Z" fill="#3056D3"/>
<path opacity="0.56" d="M23.4024 23.52H18.0938C17.9432 23.5092 17.7973 23.4624 17.6687 23.3835C17.54 23.3045 17.4323 23.1958 17.3545 23.0664L27.1154 40.3536C27.1901 40.483 27.298 40.5902 27.4279 40.664C27.5579 40.7379 27.7051 40.7757 27.8545 40.7736C27.949 40.7896 28.0456 40.7896 28.1402 40.7736C29.2503 40.3739 30.3239 39.8793 31.349 39.2952C31.4451 39.2413 31.5293 39.1686 31.5968 39.0814C31.6642 38.9943 31.7135 38.8945 31.7417 38.788C31.7699 38.6814 31.7766 38.5703 31.761 38.4612C31.7455 38.3521 31.7081 38.2472 31.6513 38.1528L23.4024 23.52Z" fill="#3056D3"/>
</g>
<path d="M65.6485 14.3395V32.138H62.5187V14.3395H57.75V11.3977H70.4037V14.3395H65.6485Z" fill="#3056D3"/>
<path d="M81.1097 19.0544H84.1455V32.138H81.1097V30.7679C79.8649 31.932 78.5261 32.5141 77.0933 32.5141C75.2843 32.5141 73.7888 31.8604 72.6067 30.5529C71.4336 29.2186 70.847 27.5529 70.847 25.5559C70.847 23.5947 71.4336 21.9604 72.6067 20.6529C73.7798 19.3455 75.2485 18.6917 77.0127 18.6917C78.5351 18.6917 79.9007 19.3186 81.1097 20.5723V19.0544ZM73.9366 25.5559C73.9366 26.8097 74.2724 27.8305 74.944 28.6186C75.6336 29.4156 76.5022 29.8141 77.55 29.8141C78.6694 29.8141 79.5739 29.4291 80.2634 28.6589C80.953 27.8619 81.2978 26.8499 81.2978 25.6231C81.2978 24.3962 80.953 23.3843 80.2634 22.5873C79.5739 21.8082 78.6784 21.4186 77.5769 21.4186C76.5381 21.4186 75.6694 21.8126 74.9709 22.6007C74.2813 23.3977 73.9366 24.3828 73.9366 25.5559Z" fill="#3056D3"/>
<path d="M90.9828 19.0544V32.138H87.9604V19.0544H90.9828ZM87.5037 13.6141C87.5037 13.0858 87.6963 12.6291 88.0813 12.244C88.4664 11.8589 88.9276 11.6664 89.4649 11.6664C90.0112 11.6664 90.4769 11.8589 90.8619 12.244C91.247 12.6201 91.4395 13.0813 91.4395 13.6276C91.4395 14.1738 91.247 14.6395 90.8619 15.0246C90.4858 15.4097 90.0246 15.6022 89.4784 15.6022C88.9321 15.6022 88.4664 15.4097 88.0813 15.0246C87.6963 14.6395 87.5037 14.1694 87.5037 13.6141Z" fill="#3056D3"/>
<path d="M97.8336 9.44995V32.138H94.8112V9.44995H97.8336Z" fill="#3056D3"/>
<path d="M112.905 21.338H121.475V22.0231C121.475 23.5813 121.292 24.9604 120.925 26.1604C120.566 27.2708 119.962 28.3097 119.111 29.2768C117.186 31.444 114.737 32.5276 111.763 32.5276C108.862 32.5276 106.377 31.4798 104.308 29.3843C102.24 27.2798 101.205 24.7544 101.205 21.8082C101.205 18.7992 102.257 16.247 104.362 14.1514C106.466 12.047 109.028 10.9947 112.046 10.9947C113.666 10.9947 115.18 11.3261 116.586 11.9888C117.929 12.6514 119.25 13.7261 120.548 15.2126L118.319 17.3485C116.617 15.0828 114.544 13.95 112.099 13.95C109.905 13.95 108.065 14.7067 106.578 16.2201C105.092 17.7067 104.348 19.5694 104.348 21.8082C104.348 24.1186 105.177 26.0216 106.834 27.5171C108.383 28.9052 110.062 29.5992 111.871 29.5992C113.411 29.5992 114.795 29.0798 116.022 28.041C117.248 26.9932 117.934 25.7395 118.077 24.2798H112.905V21.338Z" fill="#3056D3"/>
<path d="M124.847 19.0544H127.869V20.2231C128.425 19.641 128.917 19.2425 129.347 19.0276C129.786 18.8037 130.305 18.6917 130.905 18.6917C131.702 18.6917 132.535 18.9514 133.404 19.4708L132.02 22.238C131.447 21.8261 130.887 21.6201 130.341 21.6201C128.693 21.6201 127.869 22.8649 127.869 25.3544V32.138H124.847V19.0544Z" fill="#3056D3"/>
<path d="M138.589 19.0544V32.138H135.566V19.0544H138.589ZM135.11 13.6141C135.11 13.0858 135.302 12.6291 135.687 12.244C136.072 11.8589 136.534 11.6664 137.071 11.6664C137.617 11.6664 138.083 11.8589 138.468 12.244C138.853 12.6201 139.046 13.0813 139.046 13.6276C139.046 14.1738 138.853 14.6395 138.468 15.0246C138.092 15.4097 137.631 15.6022 137.084 15.6022C136.538 15.6022 136.072 15.4097 135.687 15.0246C135.302 14.6395 135.11 14.1694 135.11 13.6141Z" fill="#3056D3"/>
<path d="M152.062 9.44995H155.098V32.138H152.062V30.7679C150.871 31.932 149.523 32.5141 148.019 32.5141C146.228 32.5141 144.741 31.8604 143.559 30.5529C142.386 29.2186 141.799 27.5529 141.799 25.5559C141.799 23.6037 142.386 21.9738 143.559 20.6664C144.723 19.3499 146.187 18.6917 147.951 18.6917C149.483 18.6917 150.853 19.3186 152.062 20.5723V9.44995ZM144.889 25.5559C144.889 26.8097 145.225 27.8305 145.896 28.6186C146.586 29.4156 147.454 29.8141 148.502 29.8141C149.622 29.8141 150.526 29.4291 151.216 28.6589C151.905 27.8619 152.25 26.8499 152.25 25.6231C152.25 24.3962 151.905 23.3843 151.216 22.5873C150.526 21.8082 149.631 21.4186 148.529 21.4186C147.49 21.4186 146.622 21.8126 145.923 22.6007C145.234 23.3977 144.889 24.3828 144.889 25.5559Z" fill="#3056D3"/>
<path d="M166.516 21.2843L164.017 22.6141C163.623 21.8082 163.135 21.4052 162.553 21.4052C162.275 21.4052 162.038 21.4992 161.841 21.6873C161.644 21.8664 161.546 22.0992 161.546 22.3858C161.546 22.8873 162.128 23.3843 163.292 23.8768C164.895 24.5664 165.974 25.2022 166.529 25.7843C167.084 26.3664 167.362 27.15 167.362 28.135C167.362 29.3977 166.896 30.4544 165.965 31.3052C165.06 32.1111 163.968 32.5141 162.687 32.5141C160.493 32.5141 158.94 31.444 158.026 29.3037L160.605 28.1082C160.963 28.735 161.237 29.1335 161.425 29.3037C161.792 29.644 162.231 29.8141 162.741 29.8141C163.762 29.8141 164.272 29.3485 164.272 28.4171C164.272 27.8798 163.878 27.3783 163.09 26.9126C162.786 26.7604 162.481 26.6126 162.177 26.4694C161.872 26.3261 161.563 26.1783 161.25 26.0261C160.372 25.5962 159.754 25.1664 159.396 24.7365C158.94 24.1902 158.711 23.4873 158.711 22.6276C158.711 21.4902 159.101 20.5499 159.88 19.8067C160.677 19.0634 161.644 18.6917 162.781 18.6917C164.456 18.6917 165.701 19.5559 166.516 21.2843Z" fill="#3056D3"/>
<defs>
<clipPath id="clip0_140_352">
<rect width="42" height="42" fill="white"/>
</clipPath>
</defs>
</svg>
