<svg width="20" height="22" viewBox="0 0 20 22" fill="none" xmlns="http://www.w3.org/2000/svg">
<path d="M18.8343 12.6844C18.7655 11.8938 18.1124 11.3438 17.3218 11.3438H2.67804C1.88742 11.3438 1.26867 11.9281 1.16554 12.6844L0.443668 19.9031C0.409293 20.3156 0.546793 20.7625 0.821793 21.0719C1.09679 21.3812 1.50929 21.5531 1.95617 21.5531H18.078C18.4905 21.5531 18.903 21.3812 19.2124 21.0719C19.4874 20.7625 19.6249 20.35 19.5905 19.9031L18.8343 12.6844ZM18.2843 20.2812C18.2499 20.3156 18.1812 20.3844 18.0437 20.3844H1.95617C1.85304 20.3844 1.74992 20.3156 1.71554 20.2812C1.68117 20.2469 1.61242 20.1781 1.64679 20.0406L2.36867 12.7875C2.36867 12.6156 2.50617 12.5125 2.67804 12.5125H17.3562C17.528 12.5125 17.6312 12.6156 17.6655 12.7875L18.3874 20.0406C18.353 20.1438 18.3187 20.2469 18.2843 20.2812Z" fill="#212B36"/>
<path d="M10 14.0249C8.65937 14.0249 7.59375 15.0905 7.59375 16.4312C7.59375 17.7718 8.65937 18.8374 10 18.8374C11.3406 18.8374 12.4062 17.7718 12.4062 16.4312C12.4062 15.0905 11.3406 14.0249 10 14.0249ZM10 17.6343C9.34687 17.6343 8.79688 17.0843 8.79688 16.4312C8.79688 15.778 9.34687 15.228 10 15.228C10.6531 15.228 11.2031 15.778 11.2031 16.4312C11.2031 17.0843 10.6531 17.6343 10 17.6343Z" fill="#212B36"/>
<path d="M1.26875 6.73745C1.3375 8.24995 2.67812 8.8687 3.36562 8.8687H5.77188C5.80625 8.8687 5.80625 8.8687 5.80625 8.8687C6.8375 8.79995 7.86875 8.11245 7.86875 6.73745V5.91245C9.00312 5.91245 11.6156 5.91245 12.75 5.91245V6.73745C12.75 8.11245 13.7812 8.79995 14.8125 8.8687H14.8469H17.2188C17.9062 8.8687 19.2469 8.24995 19.3156 6.73745C19.3156 6.63433 19.3156 6.2562 19.3156 5.91245C19.3156 5.63745 19.3156 5.39683 19.3156 5.36245C19.3156 5.32808 19.3156 5.2937 19.3156 5.2937C19.2125 4.3312 18.8687 3.54058 18.2844 2.92183L18.25 2.88745C17.3906 2.09683 16.3594 1.64995 15.5688 1.37495C13.2656 0.481201 10.3781 0.481201 10.2406 0.481201C8.2125 0.515576 6.90625 0.687451 4.94687 1.37495C4.19062 1.61558 3.15938 2.06245 2.3 2.85308L2.26562 2.88745C1.68125 3.5062 1.3375 4.29683 1.23438 5.25933C1.23438 5.2937 1.23438 5.32807 1.23438 5.32807C1.23438 5.39682 1.23438 5.60308 1.23438 5.87808C1.26875 6.18745 1.26875 6.59995 1.26875 6.73745ZM3.125 3.71245C3.8125 3.0937 4.67188 2.71558 5.39375 2.44058C7.18125 1.78745 8.35 1.64995 10.3094 1.61558C10.4469 1.61558 13.1281 1.64995 15.1906 2.44058C15.9125 2.71558 16.7719 3.05933 17.4594 3.71245C17.8375 4.12495 18.0781 4.67495 18.1469 5.32807C18.1469 5.4312 18.1469 5.60308 18.1469 5.87808C18.1469 6.22183 18.1469 6.59995 18.1469 6.70307C18.1125 7.4937 17.3562 7.66557 17.2531 7.66557H14.8813C14.5375 7.6312 13.9875 7.4937 13.9875 6.73745V5.32807C13.9875 5.05308 13.8156 4.84683 13.575 4.7437C13.3688 4.67495 7.35313 4.67495 7.14688 4.7437C6.90625 4.81245 6.73438 5.05308 6.73438 5.32807V6.73745C6.73438 7.4937 6.18437 7.6312 5.84062 7.66557H3.46875C3.36562 7.66557 2.60937 7.4937 2.575 6.70307C2.575 6.59995 2.575 6.22183 2.575 5.87808C2.575 5.60308 2.575 5.46558 2.575 5.36245C2.50625 4.67495 2.74688 4.12495 3.125 3.71245Z" fill="#212B36"/>
</svg>
