<svg width="22" height="18" viewBox="0 0 22 18" fill="none" xmlns="http://www.w3.org/2000/svg">
<path d="M11.0008 10.5125C13.8195 10.5125 16.1227 8.20937 16.1227 5.39062C16.1227 2.57188 13.8195 0.234375 11.0008 0.234375C8.18203 0.234375 5.87891 2.5375 5.87891 5.35625C5.87891 8.175 8.18203 10.5125 11.0008 10.5125ZM11.0008 1.4375C13.1664 1.4375 14.9195 3.19062 14.9195 5.35625C14.9195 7.52187 13.1664 9.275 11.0008 9.275C8.83516 9.275 7.08203 7.52187 7.08203 5.35625C7.08203 3.225 8.83516 1.4375 11.0008 1.4375Z" fill="#212B36"/>
<path d="M21.3472 16.7C18.4941 14.2593 14.816 12.9187 11.0004 12.9187C7.18474 12.9187 3.50662 14.2593 0.653492 16.7C0.378492 16.9062 0.344117 17.2843 0.584742 17.5593C0.790992 17.8 1.16912 17.8343 1.44412 17.6281C4.09099 15.3937 7.49411 14.1562 11.0347 14.1562C14.5754 14.1562 17.9785 15.3937 20.6254 17.6281C20.7285 17.7312 20.866 17.7656 21.0035 17.7656C21.1754 17.7656 21.3472 17.6968 21.4504 17.5593C21.6566 17.2843 21.6222 16.9062 21.3472 16.7Z" fill="#212B36"/>
</svg>
