<svg width="19" height="21" viewBox="0 0 19 21" fill="none" xmlns="http://www.w3.org/2000/svg">
<path fill-rule="evenodd" clip-rule="evenodd" d="M0.361816 7.92287C0.361816 3.54719 3.909 0 8.28468 0C12.6604 0 16.2076 3.54719 16.2076 7.92287C16.2076 12.2985 12.6604 15.8457 8.28468 15.8457C3.909 15.8457 0.361816 12.2985 0.361816 7.92287ZM8.28468 1.77157C4.88742 1.77157 2.13339 4.5256 2.13339 7.92287C2.13339 11.3201 4.88742 14.0742 8.28468 14.0742C11.6819 14.0742 14.436 11.3201 14.436 7.92287C14.436 4.5256 11.6819 1.77157 8.28468 1.77157Z" fill="white"/>
<path fill-rule="evenodd" clip-rule="evenodd" d="M12.7351 13.511C13.1231 13.213 13.6792 13.286 13.9771 13.674L18.0714 19.0051C18.3694 19.3931 18.2964 19.9492 17.9084 20.2471C17.5205 20.5451 16.9644 20.4721 16.6664 20.0841L12.5721 14.753C12.2741 14.365 12.3471 13.809 12.7351 13.511Z" fill="white"/>
</svg>
