<svg width="15" height="16" viewBox="0 0 15 16" fill="none" xmlns="http://www.w3.org/2000/svg">
<path d="M3.89531 9.1416H3.10666C2.96327 9.1416 2.86768 9.2372 2.86768 9.38059V10.1453C2.86768 10.2887 2.96327 10.3843 3.10666 10.3843H3.89531C4.03871 10.3843 4.1343 10.2887 4.1343 10.1453V9.38059C4.1343 9.2372 4.03871 9.1416 3.89531 9.1416Z" fill="#637381"/>
<path d="M6.429 9.1416H5.64035C5.49696 9.1416 5.40137 9.2372 5.40137 9.38059V10.1453C5.40137 10.2887 5.49696 10.3843 5.64035 10.3843H6.429C6.57239 10.3843 6.66799 10.2887 6.66799 10.1453V9.38059C6.66799 9.2372 6.5485 9.1416 6.429 9.1416Z" fill="#637381"/>
<path d="M8.93828 9.1416H8.14963C8.00624 9.1416 7.91064 9.2372 7.91064 9.38059V10.1453C7.91064 10.2887 8.00624 10.3843 8.14963 10.3843H8.93828C9.08167 10.3843 9.17727 10.2887 9.17727 10.1453V9.38059C9.17727 9.2372 9.08167 9.1416 8.93828 9.1416Z" fill="#637381"/>
<path d="M11.4715 9.1416H10.6828C10.5394 9.1416 10.4438 9.2372 10.4438 9.38059V10.1453C10.4438 10.2887 10.5394 10.3843 10.6828 10.3843H11.4715C11.6149 10.3843 11.7105 10.2887 11.7105 10.1453V9.38059C11.7105 9.2372 11.591 9.1416 11.4715 9.1416Z" fill="#637381"/>
<path d="M3.89531 11.627H3.10666C2.96327 11.627 2.86768 11.7225 2.86768 11.8659V12.6307C2.86768 12.7741 2.96327 12.8697 3.10666 12.8697H3.89531C4.03871 12.8697 4.1343 12.7741 4.1343 12.6307V11.8659C4.1343 11.7225 4.03871 11.627 3.89531 11.627Z" fill="#637381"/>
<path d="M6.429 11.627H5.64035C5.49696 11.627 5.40137 11.7225 5.40137 11.8659V12.6307C5.40137 12.7741 5.49696 12.8697 5.64035 12.8697H6.429C6.57239 12.8697 6.66799 12.7741 6.66799 12.6307V11.8659C6.66799 11.7225 6.5485 11.627 6.429 11.627Z" fill="#637381"/>
<path d="M8.93828 11.627H8.14963C8.00624 11.627 7.91064 11.7225 7.91064 11.8659V12.6307C7.91064 12.7741 8.00624 12.8697 8.14963 12.8697H8.93828C9.08167 12.8697 9.17727 12.7741 9.17727 12.6307V11.8659C9.17727 11.7225 9.08167 11.627 8.93828 11.627Z" fill="#637381"/>
<path d="M11.4715 11.627H10.6828C10.5394 11.627 10.4438 11.7225 10.4438 11.8659V12.6307C10.4438 12.7741 10.5394 12.8697 10.6828 12.8697H11.4715C11.6149 12.8697 11.7105 12.7741 11.7105 12.6307V11.8659C11.7105 11.7225 11.591 11.627 11.4715 11.627Z" fill="#637381"/>
<path d="M13.2637 3.83649H7.64754V3.04784C8.19721 2.90445 8.62738 2.37868 8.62738 1.78122C8.62738 1.06426 8.02992 0.466797 7.28906 0.466797C6.54821 0.466797 5.95074 1.06426 5.95074 1.78122C5.95074 2.37868 6.35702 2.88055 6.93058 3.04784V3.83649H1.31442C0.597464 3.83649 0 4.43396 0 5.15092V13.7305C0 14.4475 0.597464 15.0449 1.31442 15.0449H13.2637C13.9807 15.0449 14.5781 14.4475 14.5781 13.7305V5.15092C14.5781 4.43396 13.9807 3.83649 13.2637 3.83649ZM6.6677 1.78122C6.6677 1.44664 6.93058 1.18375 7.28906 1.18375C7.62364 1.18375 7.91042 1.44664 7.91042 1.78122C7.91042 2.1158 7.64754 2.37868 7.28906 2.37868C6.95448 2.37868 6.6677 2.0919 6.6677 1.78122ZM1.31442 4.55345H13.2637C13.5983 4.55345 13.8612 4.81634 13.8612 5.15092V6.91941H0.716957V5.15092C0.716957 4.81634 0.979841 4.55345 1.31442 4.55345ZM13.2637 14.328H1.31442C0.979841 14.328 0.716957 14.0651 0.716957 13.7305V7.63637H13.8612V13.7305C13.8612 14.0651 13.5983 14.328 13.2637 14.328Z" fill="#637381"/>
</svg>
