<svg width="18" height="13" viewBox="0 0 18 13" fill="none" xmlns="http://www.w3.org/2000/svg">
<path d="M15.9754 0.466797H2.02539C1.09727 0.466797 0.337891 1.22617 0.337891 2.1543V11.1543C0.337891 11.773 0.647266 12.3074 1.18164 12.6168C1.43477 12.7574 1.74414 12.8418 2.02539 12.8418C2.30664 12.8418 2.58789 12.7574 2.86914 12.6168L5.34414 11.1824C5.45664 11.1262 5.56914 11.098 5.68164 11.098H15.9473C16.8754 11.098 17.6348 10.3387 17.6348 9.41055V2.1543C17.6629 1.22617 16.9035 0.466797 15.9754 0.466797ZM16.6785 9.41055C16.6785 9.8043 16.3691 10.1137 15.9754 10.1137H5.70977C5.42852 10.1137 5.11914 10.198 4.86602 10.3387L2.39102 11.773C2.16602 11.8855 1.91289 11.8855 1.68789 11.773C1.46289 11.6605 1.35039 11.4355 1.35039 11.1824V2.1543C1.35039 1.76055 1.65977 1.45117 2.05352 1.45117H16.0035C16.3973 1.45117 16.7066 1.76055 16.7066 2.1543V9.41055H16.6785Z" fill="#637381"/>
<path d="M12.5721 3.8418H5.03457C4.75332 3.8418 4.52832 4.0668 4.52832 4.34805C4.52832 4.62929 4.75332 4.85429 5.03457 4.85429H12.6002C12.8814 4.85429 13.1064 4.62929 13.1064 4.34805C13.1064 4.0668 12.8533 3.8418 12.5721 3.8418Z" fill="#637381"/>
<path d="M11.3908 7.02051H5.03457C4.75332 7.02051 4.52832 7.24551 4.52832 7.52676C4.52832 7.808 4.75332 8.033 5.03457 8.033H11.4189C11.7002 8.033 11.9252 7.808 11.9252 7.52676C11.9252 7.24551 11.6721 7.02051 11.3908 7.02051Z" fill="#637381"/>
</svg>
