<svg width="46" height="47" viewBox="0 0 46 47" fill="none" xmlns="http://www.w3.org/2000/svg">
<circle cx="1.39737" cy="45.0694" r="1.39737" transform="rotate(-90 1.39737 45.0694)" fill="white" fill-opacity="0.44"/>
<circle cx="1.39737" cy="8.45809" r="1.39737" transform="rotate(-90 1.39737 8.45809)" fill="white" fill-opacity="0.44"/>
<circle cx="13.6947" cy="45.0694" r="1.39737" transform="rotate(-90 13.6947 45.0694)" fill="white" fill-opacity="0.44"/>
<circle cx="13.6947" cy="8.45809" r="1.39737" transform="rotate(-90 13.6947 8.45809)" fill="white" fill-opacity="0.44"/>
<circle cx="25.9911" cy="45.0694" r="1.39737" transform="rotate(-90 25.9911 45.0694)" fill="white" fill-opacity="0.44"/>
<circle cx="25.9911" cy="8.45809" r="1.39737" transform="rotate(-90 25.9911 8.45809)" fill="white" fill-opacity="0.44"/>
<circle cx="38.2885" cy="45.0694" r="1.39737" transform="rotate(-90 38.2885 45.0694)" fill="white" fill-opacity="0.44"/>
<circle cx="38.2885" cy="8.45809" r="1.39737" transform="rotate(-90 38.2885 8.45809)" fill="white" fill-opacity="0.44"/>
<circle cx="1.39737" cy="32.7725" r="1.39737" transform="rotate(-90 1.39737 32.7725)" fill="white" fill-opacity="0.44"/>
<circle cx="13.6947" cy="32.7725" r="1.39737" transform="rotate(-90 13.6947 32.7725)" fill="white" fill-opacity="0.44"/>
<circle cx="25.9911" cy="32.7725" r="1.39737" transform="rotate(-90 25.9911 32.7725)" fill="white" fill-opacity="0.44"/>
<circle cx="38.2885" cy="32.7725" r="1.39737" transform="rotate(-90 38.2885 32.7725)" fill="white" fill-opacity="0.44"/>
<circle cx="1.39737" cy="20.4757" r="1.39737" transform="rotate(-90 1.39737 20.4757)" fill="white" fill-opacity="0.44"/>
<circle cx="13.6947" cy="20.4757" r="1.39737" transform="rotate(-90 13.6947 20.4757)" fill="white" fill-opacity="0.44"/>
<circle cx="25.9911" cy="20.4757" r="1.39737" transform="rotate(-90 25.9911 20.4757)" fill="white" fill-opacity="0.44"/>
<circle cx="38.2885" cy="20.4757" r="1.39737" transform="rotate(-90 38.2885 20.4757)" fill="white" fill-opacity="0.44"/>
</svg>
