<svg width="52" height="18" viewBox="0 0 52 18" fill="none" xmlns="http://www.w3.org/2000/svg">
<path d="M4.80957 4.46564H6.60722L5.7084 2.17773L4.80957 4.46564Z" fill="#8D99A3"/>
<path d="M27.117 2.50359C26.9536 2.42188 26.7085 2.42188 26.4633 2.42188H24.8291V3.72925H26.4633C26.7085 3.72925 26.9536 3.72925 27.117 3.64754C27.2805 3.56583 27.3622 3.3207 27.3622 3.07556C27.4439 2.74872 27.2805 2.5853 27.117 2.50359Z" fill="#8D99A3"/>
<path d="M44.6032 0.0527344V1.03327L44.1129 0.0527344H40.2725V1.03327L39.7822 0.0527344H34.5527C33.6539 0.0527344 32.9185 0.216157 32.2648 0.543001V0.0527344H28.5878V0.543001C28.1792 0.216157 27.689 0.0527344 27.0353 0.0527344H13.8798L12.981 2.09551L12.0822 0.0527344H7.91489V1.03327L7.42462 0.0527344H3.91104L2.27682 3.89316L0.397461 8.14213H4.56473L5.055 6.83476H6.19895L6.68922 8.14213H11.4285V7.1616L11.837 8.14213H14.2066L14.6152 7.1616V8.14213H25.973V6.01764H26.1365C26.2999 6.01764 26.2999 6.01765 26.2999 6.26278V8.06042H32.1831V7.57016C32.6734 7.81529 33.4088 8.06042 34.3893 8.06042H36.8406L37.3309 6.75304H38.4748L38.9651 8.06042H43.7044V6.83476L44.4398 8.06042H48.2802V0.0527344H44.6032ZM16.9848 6.91647H15.5957V2.42236L13.6347 6.91647H12.409L10.4479 2.42236V6.91647H7.66975L7.09777 5.6908H4.3196L3.82933 6.99818H2.27682L4.72815 1.19669H6.77093L9.05884 6.67133V1.19669H11.265L13.0627 5.11882L14.6969 1.19669H16.9848V6.91647ZM22.5412 2.42236H19.3544V3.4846H22.4595V4.62856H19.3544V5.77251H22.5412V6.99818H17.9654V1.19669H22.5412V2.42236ZM28.6695 4.79198C28.8329 5.11882 28.9146 5.36396 28.9146 5.85422V6.99818H27.5256V6.26278C27.5256 5.93593 27.5256 5.44567 27.2804 5.11882C27.0353 4.87369 26.7902 4.87369 26.2999 4.87369H24.8291V6.99818H23.44V1.19669H26.545C27.2804 1.19669 27.7707 1.19669 28.1792 1.44182C28.5878 1.68696 28.8329 2.09551 28.8329 2.7492C28.8329 3.64802 28.261 4.13829 27.8524 4.30171C28.261 4.38342 28.5061 4.62856 28.6695 4.79198ZM31.1208 6.91647H29.7318V1.11498H31.1208V6.91647ZM47.2179 6.91647H45.2569L42.6421 2.58578V6.91647H39.8639L39.3737 5.6908H36.5138L36.0235 6.99818H34.471C33.8173 6.99818 33.0002 6.83476 32.5099 6.34449C32.0197 5.85422 31.7745 5.20053 31.7745 4.13829C31.7745 3.32118 31.938 2.50407 32.5099 1.85038C32.9185 1.36011 33.6539 1.19669 34.5527 1.19669H35.8601V2.42236H34.5527C34.0624 2.42236 33.8173 2.50407 33.4905 2.7492C33.2453 2.99433 33.0819 3.4846 33.0819 4.05658C33.0819 4.71027 33.1636 5.11882 33.4905 5.44567C33.7356 5.6908 34.0624 5.77251 34.471 5.77251H35.043L36.9223 1.2784H38.9651L41.253 6.75304V1.2784H43.2958L45.6654 5.28225V1.2784H47.0545V6.91647H47.2179Z" fill="#8D99A3"/>
<path d="M37.0046 4.46564H38.884L37.9852 2.17773L37.0046 4.46564ZM23.1137 16.232V11.5745L20.9893 13.8624L23.1137 16.232Z" fill="#8D99A3"/>
<path d="M14.3701 12.1465V13.2087H17.3934V14.3527H14.3701V15.5784H17.7203L19.2728 13.8624L17.802 12.1465H14.3701Z" fill="#8D99A3"/>
<path d="M26.2189 12.1465H24.5029V13.6173H26.3006C26.7908 13.6173 27.1177 13.3722 27.1177 12.8819C27.036 12.3916 26.7091 12.1465 26.2189 12.1465Z" fill="#8D99A3"/>
<path d="M51.4674 13.5354V9.8584H48.0356C47.3002 9.8584 46.7282 10.0218 46.3197 10.3487V9.8584H42.5609C41.989 9.8584 41.2536 10.0218 40.9267 10.3487V9.8584H34.3081V10.3487C33.8179 9.94011 32.919 9.8584 32.5105 9.8584H28.0981V10.3487C27.6895 9.94011 26.709 9.8584 26.2187 9.8584H21.3161L20.1721 11.0841L19.1099 9.8584H11.7559V17.8661H18.9464L20.0904 16.6404L21.1526 17.8661H25.565V15.9867H26.137C26.709 15.9867 27.4444 15.9867 28.0164 15.7416V17.9478H31.6934V15.8233H31.8568C32.1019 15.8233 32.1019 15.8233 32.1019 16.0684V17.9478H43.2146C43.95 17.9478 44.6854 17.7844 45.094 17.4575V17.9478H48.6076C49.343 17.9478 50.0784 17.8661 50.5686 17.5392C51.3857 17.049 51.876 16.1502 51.876 15.0879C51.876 14.5159 51.7126 13.944 51.4674 13.5354ZM26.137 14.8428H24.5028V16.8038H21.888L20.2538 14.9245L18.5379 16.8038H13.1449V11.0024H18.6196L20.2538 12.8817L21.9697 11.0024H26.3004C27.3627 11.0024 28.5883 11.3292 28.5883 12.8817C28.5066 14.5159 27.3627 14.8428 26.137 14.8428ZM34.3081 14.5159C34.4715 14.7611 34.5533 15.0879 34.5533 15.5782V16.7221H33.1642V15.9867C33.1642 15.6599 33.1642 15.0879 32.919 14.8428C32.7556 14.5976 32.4288 14.5976 31.9385 14.5976H30.4677V16.7221H29.0786V10.9206H32.1836C32.8373 10.9206 33.4093 10.9206 33.8179 11.1658C34.2264 11.4109 34.5533 11.8195 34.5533 12.4732C34.5533 13.372 33.9813 13.8622 33.5727 14.0257C33.9813 14.1891 34.2264 14.3525 34.3081 14.5159ZM39.9462 12.1463H36.7595V13.2086H39.8645V14.3525H36.7595V15.4965H39.9462V16.7221H35.3704V10.9206H39.9462V12.1463ZM43.3781 16.7221H40.7633V15.4965H43.3781C43.6232 15.4965 43.7866 15.4965 43.95 15.333C44.0317 15.2513 44.1135 15.0879 44.1135 14.9245C44.1135 14.7611 44.0317 14.5976 43.95 14.5159C43.8683 14.4342 43.7049 14.3525 43.4598 14.3525C42.1524 14.2708 40.5999 14.3525 40.5999 12.5549C40.5999 11.7378 41.0901 10.8389 42.5609 10.8389H45.2574V12.228H42.7244C42.4792 12.228 42.3158 12.228 42.1524 12.3097C41.989 12.3914 41.989 12.5549 41.989 12.7183C41.989 12.9634 42.1524 13.0451 42.3158 13.1268C42.4792 13.2086 42.6427 13.2086 42.8061 13.2086H43.5415C44.2769 13.2086 44.7671 13.372 45.094 13.6988C45.3391 13.944 45.5025 14.3525 45.5025 14.9245C45.5025 16.1502 44.7671 16.7221 43.3781 16.7221ZM50.4052 16.1502C50.0784 16.477 49.5064 16.7221 48.6893 16.7221H46.0745V15.4965H48.6893C48.9344 15.4965 49.0978 15.4965 49.2613 15.333C49.343 15.2513 49.4247 15.0879 49.4247 14.9245C49.4247 14.7611 49.343 14.5976 49.2613 14.5159C49.1795 14.4342 49.0161 14.3525 48.771 14.3525C47.4636 14.2708 45.9111 14.3525 45.9111 12.5549C45.9111 11.7378 46.4014 10.8389 47.8722 10.8389H50.5686V12.228H48.1173C47.8722 12.228 47.7087 12.228 47.5453 12.3097C47.3819 12.3914 47.3819 12.5549 47.3819 12.7183C47.3819 12.9634 47.4636 13.0451 47.7087 13.1268C47.8722 13.2086 48.0356 13.2086 48.199 13.2086H48.9344C49.6698 13.2086 50.1601 13.372 50.4869 13.6988C50.5686 13.6988 50.5686 13.7805 50.5686 13.7805C50.8138 14.1074 50.8955 14.5159 50.8955 14.9245C50.8955 15.4148 50.7321 15.8233 50.4052 16.1502Z" fill="#8D99A3"/>
<path d="M32.8374 12.3099C32.6739 12.2282 32.4288 12.2282 32.1837 12.2282H30.5495V13.5356H32.1837C32.4288 13.5356 32.6739 13.5356 32.8374 13.4539C33.0008 13.3722 33.0825 13.127 33.0825 12.8819C33.1642 12.555 33.0008 12.3916 32.8374 12.3099ZM27.1176 2.50458C26.9542 2.42287 26.709 2.42287 26.4639 2.42287H24.8297V3.73024H26.4639C26.709 3.73024 26.9542 3.73024 27.1176 3.64853C27.281 3.56682 27.3627 3.32169 27.3627 3.07656C27.4444 2.74971 27.281 2.58629 27.1176 2.50458ZM37.0046 4.46564H38.884L37.9852 2.17773L37.0046 4.46564ZM23.1137 16.232V11.5745L20.9893 13.8624L23.1137 16.232ZM26.2188 12.1465H24.5028V13.6173H26.3005C26.7907 13.6173 27.1176 13.3722 27.1176 12.8819C27.0359 12.3916 26.709 12.1465 26.2188 12.1465Z" fill="#8D99A3"/>
<path d="M32.8377 12.3102C32.6743 12.2285 32.4292 12.2285 32.184 12.2285H30.5498V13.5359H32.184C32.4292 13.5359 32.6743 13.5359 32.8377 13.4542C33.0011 13.3725 33.0828 13.1273 33.0828 12.8822C33.1645 12.5554 33.0011 12.3919 32.8377 12.3102Z" fill="#8D99A3"/>
<path d="M25.6468 16.5587L24.5028 15.333V16.7221H21.8063L20.1721 14.8428L18.3745 16.7221H12.9815V11.0024H18.4562L20.1721 12.8817L20.9892 11.9012L18.9464 9.8584H11.7559V17.8661H18.9464L20.1721 16.6404L21.2344 17.8661H25.6468V16.5587Z" fill="#8D99A3"/>
<path d="M17.1482 8.06042L16.086 6.91647H15.5957V6.4262L14.3701 5.20053L13.553 6.91647H12.409L10.4479 2.42236V6.91647H7.66975L7.09777 5.6908H4.31959L3.74762 6.91647H2.27682L4.72815 1.19669H6.77093L9.05884 6.67133V1.19669H10.2845L9.14055 0.0527344H7.91488V1.03327L7.50633 0.0527344H3.91104L2.27682 3.89316L0.397461 8.06042H4.64644L5.13671 6.83476H6.28066L6.85264 8.06042H11.4285V7.07989L11.837 8.06042H14.2066L14.6152 7.07989V8.06042H17.1482Z" fill="#8D99A3"/>
<path d="M13.3894 4.30249L12.082 2.99512L13.0626 5.1196L13.3894 4.30249Z" fill="#8D99A3"/>
<path d="M50.5685 17.4576C51.3039 16.9673 51.7942 16.1502 51.8759 15.2513L50.732 14.1074C50.8137 14.3525 50.8954 14.5977 50.8954 14.9245C50.8954 15.4148 50.732 15.8233 50.4051 16.1502C50.0783 16.477 49.5063 16.7221 48.6892 16.7221H46.0744V15.4965H48.6892C48.9343 15.4965 49.0977 15.4965 49.2612 15.3331C49.3429 15.2513 49.4246 15.0879 49.4246 14.9245C49.4246 14.7611 49.3429 14.5977 49.2612 14.5159C49.1794 14.4342 49.016 14.3525 48.7709 14.3525C47.4635 14.2708 45.911 14.3525 45.911 12.5549C45.911 11.7378 46.4013 11.0024 47.6269 10.8389L46.7281 9.94013C46.5647 10.0218 46.483 10.1035 46.4013 10.1035V9.61328H42.6426C42.0706 9.61328 41.3352 9.77671 41.0083 10.1035V9.61328H34.308V10.1035C33.8178 9.69499 32.9189 9.61328 32.5104 9.61328H28.098V10.1035C27.6894 9.69499 26.7089 9.61328 26.2186 9.61328H21.316L20.172 10.8389L19.1098 9.61328H18.2109L20.6623 12.0646L21.8879 10.7572H26.2186C27.2809 10.7572 28.5065 11.0841 28.5065 12.6366C28.5065 14.2708 27.3626 14.5977 26.1369 14.5977H24.5027V15.8233L25.7284 17.049V15.8233H26.1369C26.7089 15.8233 27.4443 15.8233 28.0163 15.5782V17.7844H31.6933V15.6599H31.8567C32.1018 15.6599 32.1018 15.6599 32.1018 15.905V17.7844H43.2145C43.9499 17.7844 44.6853 17.621 45.0939 17.2941V17.7844H48.6075C49.2612 17.8661 49.9966 17.7844 50.5685 17.4576ZM34.308 14.5159C34.4714 14.7611 34.5532 15.0879 34.5532 15.5782V16.7221H33.1641V15.9867C33.1641 15.6599 33.1641 15.0879 32.9189 14.8428C32.7555 14.5977 32.4287 14.5977 31.9384 14.5977H30.4676V16.7221H29.0785V10.9207H32.1835C32.8372 10.9207 33.4092 10.9207 33.8178 11.1658C34.2263 11.4109 34.5532 11.8195 34.5532 12.4732C34.5532 13.372 33.9812 13.8623 33.5726 14.0257C33.9812 14.1891 34.2263 14.3525 34.308 14.5159ZM39.9461 12.1463H36.7594V13.2086H39.8644V14.3525H36.7594V15.4965H39.9461V16.7221H35.3703V10.9207H39.9461V12.1463ZM43.378 16.7221H40.7632V15.4965H43.378C43.6231 15.4965 43.7865 15.4965 43.9499 15.3331C44.0316 15.2513 44.1134 15.0879 44.1134 14.9245C44.1134 14.7611 44.0316 14.5977 43.9499 14.5159C43.8682 14.4342 43.7048 14.3525 43.4597 14.3525C42.1523 14.2708 40.5998 14.3525 40.5998 12.5549C40.5998 11.7378 41.09 10.8389 42.5608 10.8389H45.2573V12.228H42.7243C42.4791 12.228 42.3157 12.228 42.1523 12.3097C41.9889 12.3915 41.9889 12.5549 41.9889 12.7183C41.9889 12.9634 42.1523 13.0451 42.3157 13.1269C42.4791 13.2086 42.6426 13.2086 42.806 13.2086H43.5414C44.2768 13.2086 44.767 13.372 45.0939 13.6988C45.339 13.944 45.5024 14.3525 45.5024 14.9245C45.5024 16.1502 44.767 16.7221 43.378 16.7221Z" fill="#8D99A3"/>
<path d="M47.3008 12.7188C47.3008 12.9639 47.3825 13.0456 47.6276 13.1273C47.791 13.209 47.9545 13.209 48.1179 13.209H48.8533C49.3436 13.209 49.6704 13.2908 49.9973 13.4542L48.7716 12.2285H48.0362C47.791 12.2285 47.6276 12.2285 47.4642 12.3102C47.3825 12.3919 47.3008 12.5554 47.3008 12.7188Z" fill="#8D99A3"/>
<path d="M44.4404 7.8154L44.6038 8.06053H44.6855L44.4404 7.8154ZM39.9463 3.32129L41.3354 6.67144V4.71038L39.9463 3.32129Z" fill="#8D99A3"/>
<path d="M25.9735 6.01797H26.1369C26.3003 6.01797 26.3003 6.01797 26.3003 6.2631V8.06074H32.1835V7.57048C32.6738 7.81561 33.4092 8.06074 34.3897 8.06074H36.8411L37.3313 6.75337H38.4753L38.9656 8.06074H43.7048V7.24363L42.5608 6.09968V6.9985H39.7827L39.3741 5.69112H36.5142L36.024 6.9985H34.4714C33.8178 6.9985 33.0006 6.83508 32.5104 6.34481C32.0201 5.85454 31.775 5.20086 31.775 4.13861C31.775 3.3215 31.9384 2.50439 32.5104 1.8507C32.9189 1.36043 33.6543 1.19701 34.5532 1.19701H35.8605V2.42268H34.5532C34.0629 2.42268 33.8178 2.50439 33.4909 2.74952C33.2458 2.99465 33.0824 3.48492 33.0824 4.0569C33.0824 4.71059 33.1641 5.11914 33.4909 5.44599C33.736 5.69112 34.0629 5.77283 34.4714 5.77283H35.0434L36.9228 1.27872H37.7399L36.5959 0.134766H34.4714C33.5726 0.134766 32.8372 0.298187 32.1835 0.625031V0.134766H28.5882V0.625031C28.1797 0.298187 27.6894 0.134766 27.0357 0.134766H13.8802L12.9814 2.17754L12.0826 0.134766H8.4873L9.63126 1.27872H11.2655L12.6546 4.30203L13.1448 4.7923L14.6156 1.19701H16.9036V6.9985H15.5145V2.50439L14.1254 5.77283L16.495 8.14246H25.8918L25.9735 6.01797ZM29.7322 1.19701H31.1213V6.9985H29.7322V1.19701ZM22.5416 2.42268H19.3549V3.48492H22.4599V4.62888H19.3549V5.77283H22.5416V6.9985H17.9658V1.19701H22.5416V2.42268ZM24.8295 6.91679H23.4404V1.1153H26.5455C27.2809 1.1153 27.7711 1.1153 28.1797 1.36043C28.5882 1.60557 28.8334 2.01412 28.8334 2.66781C28.8334 3.56663 28.2614 4.0569 27.8528 4.22032C28.1797 4.30203 28.4248 4.54717 28.5065 4.71059C28.67 5.03743 28.7517 5.28257 28.7517 5.77283V6.91679H27.3626V6.18139C27.3626 5.85454 27.3626 5.36428 27.1174 5.03743C27.0357 4.87401 26.7906 4.87401 26.3003 4.87401H24.8295V6.91679Z" fill="#8D99A3"/>
</svg>
