<svg width="75" height="13" viewBox="0 0 75 13" fill="none" xmlns="http://www.w3.org/2000/svg">
<path d="M39.8639 12.7229C43.2858 12.7229 46.0598 9.94893 46.0598 6.527C46.0598 3.10507 43.2858 0.331055 39.8639 0.331055C36.442 0.331055 33.668 3.10507 33.668 6.527C33.668 9.94893 36.442 12.7229 39.8639 12.7229Z" fill="#8D99A3"/>
<path d="M33.668 6.527C33.668 3.07157 36.4085 0.331055 39.8639 0.331055C43.3193 0.331055 46.0598 3.07157 46.0598 6.527C46.0598 9.98243 43.3193 12.7229 39.8639 12.7229" fill="#A6AEB6"/>
<path d="M35.5742 2.11835C37.9573 -0.264709 41.8893 -0.264709 44.2724 2.11835C46.6555 4.5014 46.6555 8.43344 44.2724 10.8165" fill="#B5BFC9"/>
<path d="M4.00327 0.688489H0.666992V12.3655H4.00327C5.79056 12.3655 7.10125 11.8889 8.17362 11.0548C9.4843 9.98241 10.3184 8.31427 10.3184 6.52698C10.3184 3.07155 7.81616 0.688489 4.00327 0.688489ZM6.74379 9.5058C6.02887 10.1016 5.07565 10.459 3.64581 10.459H2.9309V2.71409H3.52666C4.95649 2.71409 5.90972 2.95239 6.62463 3.66731C7.4587 4.38223 7.93531 5.4546 7.93531 6.52698C8.05447 7.59935 7.57786 8.79088 6.74379 9.5058ZM11.3907 0.688489H13.6547V12.3655H11.3907V0.688489ZM19.374 5.2163C17.9442 4.73968 17.5867 4.38223 17.5867 3.78646C17.5867 3.07155 18.3016 2.47578 19.2548 2.47578C19.9698 2.47578 20.5655 2.71409 21.1613 3.429L22.3528 1.88002C21.3996 1.04595 20.2081 0.569336 18.8974 0.569336C16.8718 0.569336 15.2036 1.99917 15.2036 3.90562C15.2036 5.57376 15.9186 6.28867 18.0633 7.12274C19.0165 7.4802 19.374 7.59935 19.6123 7.83766C20.0889 8.07596 20.3272 8.55258 20.3272 9.02919C20.3272 9.98241 19.6123 10.6973 18.5399 10.6973C17.4675 10.6973 16.5143 10.1016 16.0377 9.14834L14.6079 10.5782C15.6802 12.1272 16.9909 12.8421 18.6591 12.8421C21.0421 12.8421 22.7103 11.2931 22.7103 9.02919C22.7103 7.00359 21.9953 6.16952 19.374 5.2163Z" fill="#8D99A3"/>
<path d="M23.4209 6.52603C23.4209 9.98147 26.1614 12.6028 29.6169 12.6028C30.5701 12.6028 31.4042 12.3645 32.4765 11.8879V9.1474C31.5233 10.1006 30.6892 10.4581 29.736 10.4581C27.4721 10.4581 25.804 8.78994 25.804 6.40688C25.804 4.14298 27.4721 2.35569 29.6169 2.35569C30.6892 2.35569 31.5233 2.71315 32.4765 3.66637V0.925855C31.5233 0.449244 30.6892 0.210938 29.6169 0.210938C26.2806 0.449243 23.4209 3.18976 23.4209 6.52603Z" fill="#8D99A3"/>
<path d="M51.1803 8.55159L48.0823 0.6875H45.5801L50.4653 12.7219H51.776L56.8996 0.6875H54.3974L51.1803 8.55159ZM57.8528 12.3645H64.4062V10.458H60.2359V7.24091H64.2871V5.21531H60.2359V2.7131H64.4062V0.6875H57.8528V12.3645Z" fill="#8D99A3"/>
<path d="M70.8369 7.47911C72.6239 7.12171 73.577 5.93037 73.577 4.14336C73.577 1.99894 72.0283 0.68847 69.4073 0.68847H65.9524V12.3636H68.216V7.71737H68.5734L71.79 12.3636H74.5301L70.8369 7.47911ZM68.9308 6.0495H68.216V2.47548H68.9308C70.3604 2.47548 71.1943 3.07115 71.1943 4.26249C71.1943 5.45383 70.3604 6.0495 68.9308 6.0495ZM4.00274 0.68847H0.666992V12.3636H4.00274C5.78975 12.3636 7.10023 11.8871 8.17243 11.0531C9.48291 9.98092 10.3168 8.31305 10.3168 6.52604C10.3168 3.07115 7.81503 0.68847 4.00274 0.68847ZM6.74283 9.50438C6.02802 10.1001 5.07495 10.4575 3.64534 10.4575H2.93054V2.71375H3.52621C4.95582 2.71375 5.90889 2.95202 6.62369 3.66682C7.45763 4.38162 7.93417 5.45383 7.93417 6.52604C8.0533 7.59824 7.57676 8.78958 6.74283 9.50438ZM11.3891 0.68847H13.6526V12.3636H11.3891V0.68847ZM19.371 5.21556C17.9414 4.73903 17.584 4.38162 17.584 3.78595C17.584 3.07115 18.2988 2.47548 19.2519 2.47548C19.9667 2.47548 20.5624 2.71375 21.158 3.42855L22.3494 1.87981C21.3963 1.04587 20.205 0.569336 18.8945 0.569336C16.8692 0.569336 15.2013 1.99895 15.2013 3.90509C15.2013 5.57296 15.9161 6.28777 18.0606 7.12171C19.0136 7.47911 19.371 7.59824 19.6093 7.83651C20.0858 8.07478 20.3241 8.55131 20.3241 9.02785C20.3241 9.98092 19.6093 10.6957 18.5371 10.6957C17.4649 10.6957 16.5118 10.1001 16.0353 9.14698L14.6057 10.5766C15.6779 12.1253 16.9883 12.8401 18.6562 12.8401C21.0389 12.8401 22.7068 11.2914 22.7068 9.02785C22.7068 7.00257 21.992 6.16863 19.371 5.21556ZM29.7357 12.6019C30.6888 12.6019 31.5227 12.3636 32.5949 11.8871V9.14698C31.6418 10.1001 30.8079 10.4575 29.8548 10.4575C27.5913 10.4575 25.9234 8.78958 25.9234 6.4069C25.9234 5.21556 26.3999 4.26249 27.1147 3.42855L25.566 1.87981C24.3747 2.95202 23.5407 4.61989 23.5407 6.4069C23.4216 9.98092 26.1617 12.6019 29.7357 12.6019Z" fill="#8D99A3"/>
<path d="M70.8384 7.47921C72.6257 7.12175 73.5789 5.93022 73.5789 4.14293C73.5789 1.99818 72.0299 0.6875 69.4086 0.6875H65.9531V12.3645H68.217V7.71751H68.5745L71.7916 12.3645H74.5321L70.8384 7.47921ZM68.9319 6.04938H68.217V2.47479H68.9319C70.3618 2.47479 71.1959 3.07056 71.1959 4.26208C71.1959 5.45361 70.3618 6.04938 68.9319 6.04938Z" fill="#8D99A3"/>
<path d="M62.3784 10.4585H60.2336V8.31372L57.8506 5.93066V12.3649H64.2849L62.3784 10.4585Z" fill="#8D99A3"/>
<path d="M53.8016 1.87903L51.1803 8.55159L48.0823 0.6875H45.5801L50.4653 12.7219H51.776L55.5889 3.66632L53.8016 1.87903Z" fill="#8D99A3"/>
</svg>
