<svg xmlns="http://www.w3.org/2000/svg" width="13" height="12" viewBox="0 0 13 12" fill="none">
<path d="M11.9337 0H1.64747C1.16135 0 0.772461 0.387097 0.772461 0.870968V11.129C0.772461 11.5935 1.16135 12 1.64747 12H11.8948C12.3809 12 12.7698 11.6129 12.7698 11.129V0.851613C12.8087 0.387097 12.4198 0 11.9337 0ZM4.33082 10.2H2.56136V4.49032H4.33082V10.2ZM3.43637 3.69677C2.85303 3.69677 2.40581 3.23226 2.40581 2.67097C2.40581 2.10968 2.87248 1.64516 3.43637 1.64516C4.00026 1.64516 4.46693 2.10968 4.46693 2.67097C4.46693 3.23226 4.03915 3.69677 3.43637 3.69677ZM11.0392 10.2H9.26975V7.43226C9.26975 6.77419 9.25031 5.90323 8.33641 5.90323C7.40307 5.90323 7.26696 6.63871 7.26696 7.37419V10.2H5.4975V4.49032H7.22807V5.28387H7.24751C7.50029 4.81935 8.06418 4.35484 8.93919 4.35484C10.7475 4.35484 11.0781 5.51613 11.0781 7.10323V10.2H11.0392Z" fill="#ffffff"/>
</svg>