<svg width="34" height="20" viewBox="0 0 34 20" fill="none" xmlns="http://www.w3.org/2000/svg">
<path fill-rule="evenodd" clip-rule="evenodd" d="M6.65467 9.78719L6.85 9.01616C7.60047 8.78999 9.13226 8.68718 9.42012 9.49934C9.5846 9.97224 9.1117 11.9358 9.01918 12.5115L8.28926 12.5218C8.12478 12.3162 8.25842 12.6966 8.14534 12.1928C7.44627 12.8199 5.9556 12.7171 6.06869 11.4526C6.18177 10.1984 7.2715 10.3629 8.45375 10.1779C8.43319 9.37597 7.42571 9.59186 6.64439 9.77691L6.65467 9.78719ZM12.1547 9.66383C11.4865 9.66383 11.3837 9.5199 10.7977 9.77691C10.8697 10.5068 11.25 10.219 11.7743 10.5685C12.7715 11.2265 11.7024 13.262 9.32759 12.3881L9.46124 11.648C10.1295 11.7816 10.4687 11.9152 10.9827 11.6274C11.1061 10.5891 9.26591 11.2676 9.77993 9.60215C10.0575 8.69746 11.2809 8.82083 12.2884 8.91335L12.1444 9.66383H12.1547ZM1.91538 8.09092L3.48829 8.14232L3.65278 10.6096L4.50606 8.63578C4.79391 7.92643 4.59858 8.08064 6.40794 8.1012L5.59579 12.5115L4.71167 12.5012L5.19485 9.33485L3.88923 12.5218L2.83034 12.491C2.7995 11.8741 2.7481 9.70495 2.58361 9.29373L2.04903 12.5012L1.12379 12.491L1.91538 8.09092ZM16.9146 17.4564L17.3463 16.9424C16.4828 16.8293 16.3286 17.076 15.9379 16.377L17.9221 16.3564C18.0454 16.1508 18.251 15.9555 18.3538 15.719C16.0921 15.5648 15.4547 16.1405 15.0949 15.1536H18.7239L19.1249 14.5265L14.6426 14.5059L14.437 13.9816L19.2688 13.9611C19.5464 13.8069 19.5464 13.6321 19.6183 13.3134L15.0435 13.3031C14.2211 13.3134 14.1697 13.4984 14.0155 12.748H19.7725L19.9576 12.1106L18.2716 12.09L18.1893 12.5218L17.223 12.4807L17.8295 8.89279L18.7445 9.01616C18.7445 9.03672 18.765 9.10868 18.765 9.13952C18.765 9.16009 18.7753 9.19093 18.7753 9.20121L18.8267 9.38626C19.0837 9.07784 19.2482 8.85167 19.8445 8.87223L19.5361 9.70495C19.3613 9.93112 18.8473 9.67411 18.6314 10.2909L19.6389 10.3321C19.752 9.68439 19.8753 9.48906 20.0604 8.96476L20.0707 8.65634L13.7687 8.66662L13.7482 8.89279C14.0874 8.89279 14.0772 8.83111 14.2725 8.9956L14.18 9.60215C13.5426 9.75635 13.5631 9.37597 13.5015 10.2087C13.594 10.3629 13.4809 10.2807 13.6762 10.3321L14.0772 10.3423C14.7248 8.23484 16.6576 8.69746 17.0996 9.35541C17.3361 9.70495 17.5725 10.8564 16.9865 10.9489L15.023 10.9694C15.1155 12.0078 16.308 11.7919 17.0791 11.5349C17.0482 11.9667 17.0791 12.3162 16.6781 12.4601C16.3594 12.5732 15.6912 12.5424 15.3417 12.4601C14.4781 12.2648 14.108 11.833 14.0463 10.8975L13.6762 10.8872C13.337 10.733 13.6043 10.8872 13.4295 10.4657C13.2856 11.3293 12.8949 11.8844 13.9641 11.761C13.9024 12.2751 13.9744 12.4498 13.4089 12.5115C11.7641 12.7068 12.2986 11.6068 12.5659 10.1367C12.9874 7.79278 12.6585 8.08064 13.851 8.1012L19.9781 8.11148L19.8548 7.47409L13.9332 7.45353L14.0463 6.93951L19.6492 6.90867C19.5052 6.03483 19.4744 6.25072 17.4389 6.25072H14.3342C14.5501 5.50024 14.437 5.70585 16.4519 5.70585H19.1763L18.8884 5.05818L14.9407 5.0479L15.208 4.51332L18.508 4.49276C18.0865 3.6292 18.1071 3.87593 15.7734 3.83481C16.0716 3.09462 16.5959 3.27966 17.5108 3.27966C17.2538 2.86845 17.0688 2.89929 16.9146 2.54975C16.5342 2.35442 16.1949 2.00489 15.8146 1.7376C12.9052 -0.318494 8.95749 -0.534384 5.79111 1.00768C2.94343 2.38527 0.147146 5.57221 0.177987 9.98252C0.219109 16.2844 5.74999 20.8798 12.0108 19.8106C14.951 19.3069 15.6912 18.1144 16.9043 17.4461L16.9146 17.4564Z" fill="#8D99A3"/>
<path fill-rule="evenodd" clip-rule="evenodd" d="M23.628 8.98614C26.8149 8.33847 26.2906 9.91138 26.0336 11.1862C25.9514 11.5665 25.9514 12.317 25.6532 12.5226C25.5813 12.5226 25.1598 12.5329 25.1186 12.5123C24.8308 12.3992 24.9644 12.7385 24.9233 12.2142C24.0597 12.7077 22.6924 12.8207 22.8569 11.4432C22.9906 10.3432 24.1009 10.1684 25.2317 10.2198C25.1906 9.40763 24.4504 9.54128 23.4224 9.79829L23.6383 8.98614H23.628ZM26.7738 8.89361L27.6271 8.90389C27.6373 8.92445 27.6476 8.95529 27.6476 8.97585L27.7813 9.35623C27.9355 9.11978 28.2233 8.91417 28.6757 8.90389L28.5523 9.6338L28.1308 9.79829C27.2878 10.0759 27.3392 11.1348 27.113 12.5226H26.157L26.7738 8.89361ZM31.3075 8.1123H32.1813L31.4308 12.5329C30.4542 12.5432 30.6906 12.5946 30.3822 12.2245C29.7448 13.1703 27.8327 12.2964 28.4187 10.3432C28.8504 8.88333 30.3103 8.49267 31.0299 9.35623L31.3177 8.10202L31.3075 8.1123ZM16.9251 2.56085C17.0793 2.91038 17.2747 2.87954 17.5214 3.29076C16.6064 3.29076 16.0821 3.09543 15.784 3.84591C18.1176 3.88703 18.0971 3.6403 18.5186 4.50385L15.2186 4.52442L14.9513 5.059L18.899 5.06928L19.1868 5.71695H16.4625C14.4578 5.71695 14.5606 5.52162 14.3447 6.26181H17.4494C19.4849 6.26181 19.5158 6.04592 19.6597 6.91976L14.0569 6.9506L13.9438 7.46463L19.8653 7.48519L19.9887 8.12258L13.8615 8.1123L13.7793 8.688L20.0812 8.67772L20.0709 8.98614C20.5438 8.5338 20.4616 8.29734 21.3457 8.04033C22.0756 7.83472 22.5382 7.98893 23.2579 8.14314L23.1037 9.08894C21.87 8.71884 21.0681 8.81137 20.7803 10.0861C20.4616 11.4534 21.541 11.9675 22.6822 11.4226C22.5794 12.4198 22.4149 12.6665 21.2429 12.5123C20.4307 12.4095 20.184 12.0189 19.8242 11.5357H18.3541L18.2719 12.1011L19.9578 12.1217L19.7728 12.7591H14.0157C14.17 13.5095 14.2214 13.3245 15.0438 13.3142L19.6186 13.3245C19.5364 13.6329 19.5466 13.818 19.2691 13.9722L14.4372 13.9927L14.6429 14.517L19.1251 14.5376L18.7242 15.1647H15.0952C15.455 16.1413 16.0924 15.5759 18.3541 15.7301C18.2513 15.9666 18.0457 16.1619 17.9223 16.3675L15.9382 16.3881C16.3186 17.0769 16.4831 16.8404 17.3466 16.9535L16.9148 17.4675C18.3849 18.547 19.5261 19.4516 21.9009 19.8629C24.0597 20.233 26.3112 19.8217 28.0486 18.9685C35.5739 15.2572 35.3682 4.56554 27.9869 1.02906C25.3345 -0.235438 21.8186 -0.348523 19.0737 1.09074C17.7476 1.77953 17.4289 2.27299 16.9354 2.57113L16.9251 2.56085Z" fill="#A6AEB6"/>
<path fill-rule="evenodd" clip-rule="evenodd" d="M1.12305 12.5027L2.04831 12.513L2.58291 9.3054C2.7474 9.71662 2.79881 11.8859 2.82965 12.5027L3.88856 12.5335L5.19421 9.34652L4.71102 12.513L5.59516 12.5233L6.40734 8.11283C4.59793 8.09227 4.79327 7.93806 4.50541 8.64743L3.65211 10.6213L3.48761 8.15395L1.91466 8.10255L1.12305 12.5027ZM29.7651 11.6905C28.9941 10.8989 29.6521 9.58297 30.3717 9.75775C31.0811 9.93252 30.9474 11.67 29.7651 11.6905ZM31.0194 9.3568C30.2997 8.49322 28.8502 8.88389 28.4081 10.3437C27.8221 12.2868 29.7343 13.1709 30.3717 12.2251C30.6801 12.5952 30.4437 12.5335 31.4203 12.5335L32.1708 8.11283H31.297L31.0091 9.36708L31.0194 9.3568ZM23.9565 11.7008C23.8126 11.012 24.45 10.7447 25.0566 10.8681C25.0874 11.5672 24.5939 11.9475 23.9565 11.7008ZM23.6276 8.99697L23.4117 9.80915C24.4397 9.56241 25.1902 9.42876 25.2211 10.2307C24.0902 10.1793 22.9799 10.354 22.8462 11.4541C22.6714 12.8317 24.0491 12.7186 24.9126 12.2251C24.9538 12.7494 24.8201 12.4102 25.108 12.5233C25.1491 12.5438 25.5706 12.5335 25.6426 12.5335C25.951 12.3382 25.951 11.5774 26.023 11.197C26.2903 9.91196 26.8043 8.34929 23.6173 8.99697H23.6276ZM8.28871 10.8372C8.30927 11.1868 8.24759 11.4541 8.02141 11.6288C7.8672 11.7419 7.40457 11.8756 7.21952 11.7008C6.6438 11.1765 7.72327 10.8269 8.27843 10.8372H8.28871ZM6.65408 9.78859C7.43541 9.60354 8.44292 9.38764 8.46348 10.1895C7.2812 10.3746 6.19144 10.2101 6.07836 11.4643C5.95499 12.7289 7.44569 12.8317 8.15506 12.2046C8.26815 12.7083 8.1345 12.3279 8.29899 12.5335L9.02892 12.5233C9.12145 11.9373 9.59437 9.98392 9.42987 9.51101C9.14201 8.68855 7.62047 8.79136 6.85969 9.02782L6.66436 9.79887L6.65408 9.78859ZM15.1768 10.3026C15.3104 9.77831 15.5366 9.56241 16.1432 9.64466C16.3591 9.95308 16.3591 9.86055 16.4002 10.3026H15.1768ZM14.087 10.354L14.0459 10.9092C14.1076 11.8447 14.488 12.2662 15.3413 12.4719C15.6908 12.5541 16.3591 12.5849 16.6778 12.4719C17.0787 12.3382 17.0479 11.9784 17.0787 11.5466C16.3077 11.8036 15.1151 12.0195 15.0226 10.9812L16.9862 10.9606C17.5722 10.8681 17.3358 9.7269 17.0993 9.36708C16.6572 8.70911 14.7244 8.24648 14.0768 10.354H14.087ZM20.0704 8.98669C19.8854 9.51101 19.762 9.70634 19.6489 10.354V10.9195L19.8237 11.5466C20.1835 12.0298 20.4303 12.4205 21.2424 12.5233C22.4144 12.6775 22.5789 12.4307 22.6817 11.4335C21.5303 11.9784 20.4611 11.4643 20.7798 10.097C21.0779 8.81192 21.8798 8.72967 23.1032 9.09978L23.2574 8.15395C22.5378 8.01002 22.0752 7.85581 21.3452 8.05115C20.4611 8.29788 20.5433 8.54462 20.0704 8.99697V8.98669ZM12.2879 8.91473C11.2804 8.83248 10.057 8.69883 9.77942 9.60354C9.26538 11.269 11.0954 10.5905 10.9823 11.6288C10.4579 11.9167 10.129 11.783 9.46072 11.6494L9.32707 12.3896C11.7019 13.2635 12.7608 11.2382 11.7739 10.5699C11.2496 10.2204 10.8692 10.5185 10.7972 9.77831C11.3832 9.51101 11.4757 9.66522 12.1543 9.66522L12.2982 8.91473H12.2879Z" fill="#FEFEFE"/>
<path fill-rule="evenodd" clip-rule="evenodd" d="M13.4394 10.4768L13.5113 10.2301C13.573 9.3974 13.5524 9.77778 14.1898 9.62357L14.2823 9.01702C14.087 8.85253 14.0973 8.91422 13.758 8.91422L13.7786 8.68805L13.8608 8.11234C12.6683 8.09178 12.9973 7.80393 12.5758 10.1479C12.3085 11.618 11.7739 12.718 13.4188 12.5227C13.9739 12.461 13.9123 12.2862 13.9739 11.7722C12.915 11.8956 13.3057 11.3404 13.4394 10.4768ZM18.2712 12.1114L18.3534 11.546L18.4562 10.9292L18.6413 10.3124C18.8674 9.69553 19.3815 9.95254 19.5459 9.72637L19.8544 8.89366C19.2478 8.8731 19.0833 9.09927 18.8366 9.40768L18.7852 9.22263C18.7852 9.21235 18.7749 9.18151 18.7749 9.16095C18.7749 9.14039 18.7543 9.05814 18.7543 9.03758L17.8394 8.91422L17.2328 12.5021L18.1992 12.5432L18.2814 12.1114H18.2712ZM26.1563 12.5227H27.1124C27.3385 11.1348 27.2871 10.0759 28.1301 9.79834L28.5516 9.63385L28.675 8.90394C28.2226 8.91422 27.9348 9.11983 27.7806 9.35628L27.6469 8.9759C27.6367 8.95534 27.6367 8.9245 27.6264 8.90394L26.7731 8.89366L26.1563 12.5227Z" fill="#FEFEFE"/>
<path fill-rule="evenodd" clip-rule="evenodd" d="M29.7642 11.6858C30.9567 11.6653 31.0904 9.92787 30.3707 9.7531C29.6408 9.57834 28.9931 10.8942 29.7642 11.6858Z" fill="#A6AEB6"/>
<path fill-rule="evenodd" clip-rule="evenodd" d="M8.28953 10.8352C7.73439 10.8249 6.65494 11.1744 7.23065 11.6987C7.4157 11.8632 7.87832 11.7296 8.03252 11.6268C8.25869 11.4623 8.31009 11.1847 8.29981 10.8352H8.28953ZM18.3541 11.5343L19.8242 11.5445L19.6494 10.9174H18.4569L18.3541 11.5343Z" fill="#8D99A3"/>
<path fill-rule="evenodd" clip-rule="evenodd" d="M23.9571 11.7019C24.6047 11.9383 25.0879 11.5682 25.0571 10.8691C24.4402 10.7561 23.8131 11.0233 23.9571 11.7019ZM18.457 10.9205H19.6496V10.3551L18.6421 10.3037L18.457 10.9205Z" fill="#A6AEB6"/>
<path fill-rule="evenodd" clip-rule="evenodd" d="M15.1777 10.3009H16.4011C16.3703 9.86914 16.36 9.95138 16.1441 9.64297C15.5376 9.56072 15.3114 9.77661 15.1777 10.3009Z" fill="#8D99A3"/>
<path fill-rule="evenodd" clip-rule="evenodd" d="M13.4395 10.4806C13.6142 10.9021 13.3469 10.7479 13.6862 10.9021L14.0563 10.9124L14.0974 10.3573L13.6965 10.347C13.4909 10.3059 13.6039 10.3778 13.5217 10.2236L13.4497 10.4704L13.4395 10.4806Z" fill="#8D99A3"/>
</svg>
