<svg width="74" height="18" viewBox="0 0 74 18" fill="none" xmlns="http://www.w3.org/2000/svg">
<path fill-rule="evenodd" clip-rule="evenodd" d="M28.3578 4.03809C30.0606 4.03809 31.6319 4.96181 31.4169 7.26396C31.1564 9.99996 29.6906 11.5139 27.3781 11.5204H25.3573C25.0668 11.5204 24.9261 11.7575 24.8505 12.2435L24.4597 14.728C24.401 15.1032 24.2082 15.2883 23.9242 15.2883H22.0442C21.7445 15.2883 21.6403 15.0967 21.7067 14.6681L23.2584 4.71036C23.3353 4.22049 23.519 4.03809 23.8538 4.03809H28.3539H28.3578ZM25.2961 9.36937H26.827C27.7846 9.33289 28.4203 8.66974 28.4842 7.47372C28.5233 6.735 28.0243 6.20604 27.2308 6.20995L25.7899 6.21646L25.2961 9.36937ZM36.528 14.5261C36.7 14.3697 36.8746 14.289 36.8498 14.4818L36.7886 14.943C36.7573 15.184 36.8524 15.3117 37.0765 15.3117H38.7468C39.0282 15.3117 39.165 15.1984 39.2341 14.7632L40.2633 8.30364C40.3154 7.97923 40.236 7.82028 39.9897 7.82028H38.1527C37.9872 7.82028 37.9065 7.91278 37.8635 8.16554L37.7957 8.5629C37.7605 8.77006 37.6654 8.80654 37.5768 8.59808C37.2655 7.86067 36.4707 7.52974 35.362 7.5558C32.7862 7.60922 31.0495 9.56481 30.8632 12.0715C30.7199 14.0102 32.1087 15.5332 33.9406 15.5332C35.2695 15.5332 35.8636 15.1423 36.5332 14.53L36.528 14.5261ZM35.1288 13.532C34.02 13.532 33.2474 12.6474 33.4077 11.5634C33.5679 10.4794 34.605 9.59477 35.7137 9.59477C36.8225 9.59477 37.5951 10.4794 37.4348 11.5634C37.2746 12.6474 36.2388 13.532 35.1288 13.532ZM43.5322 7.79943H41.8385C41.4893 7.79943 41.3473 8.06 41.458 8.38051L43.5609 14.5378L41.4984 17.4679C41.3252 17.7129 41.4594 17.9357 41.703 17.9357H43.6065C43.7174 17.9485 43.8297 17.9291 43.9299 17.8799C44.0302 17.8307 44.1142 17.7538 44.1719 17.6582L50.6393 8.38181C50.8386 8.09648 50.7448 7.79683 50.4178 7.79683H48.616C48.3072 7.79683 48.1834 7.9193 48.0062 8.17596L45.3093 12.0845L44.1042 8.16684C44.0338 7.92972 43.8579 7.79943 43.5335 7.79943H43.5322Z" fill="#8D99A3"/>
<path fill-rule="evenodd" clip-rule="evenodd" d="M57.3682 4.03776C59.0711 4.03776 60.6423 4.96149 60.4273 7.26364C60.1668 9.99964 58.7011 11.5136 56.3885 11.5201H54.3691C54.0785 11.5201 53.9378 11.7572 53.8622 12.2432L53.4714 14.7277C53.4128 15.1029 53.2199 15.2879 52.9359 15.2879H51.0559C50.7562 15.2879 50.652 15.0964 50.7184 14.6678L52.2728 4.70743C52.3496 4.21756 52.5333 4.03516 52.8682 4.03516H57.3682V4.03776ZM54.3065 9.36905H55.8374C56.795 9.33257 57.4308 8.66942 57.4946 7.4734C57.5337 6.73468 57.0347 6.20572 56.2413 6.20962L54.8003 6.21614L54.3065 9.36905ZM65.5385 14.5258C65.7104 14.3694 65.885 14.2886 65.8603 14.4815L65.799 14.9427C65.7678 15.1837 65.8629 15.3114 66.087 15.3114H67.7572C68.0386 15.3114 68.1754 15.198 68.2445 14.7629L69.2738 8.30332C69.3259 7.9789 69.2464 7.81996 69.0002 7.81996H67.1657C67.0003 7.81996 66.9195 7.91246 66.8765 8.16521L66.8087 8.56258C66.7736 8.76974 66.6785 8.80622 66.5899 8.59776C66.2785 7.86035 65.4837 7.52942 64.375 7.55548C61.7993 7.6089 60.0625 9.56448 59.8762 12.0712C59.7329 14.0098 61.1218 15.5329 62.9536 15.5329C64.2825 15.5329 64.8766 15.142 65.5463 14.5297L65.5385 14.5258ZM64.1405 13.5317C63.0318 13.5317 62.2592 12.647 62.4194 11.5631C62.5797 10.4791 63.6167 9.59445 64.7255 9.59445C65.8342 9.59445 66.6068 10.4791 66.4466 11.5631C66.2863 12.647 65.2492 13.5317 64.1405 13.5317ZM71.8443 15.3218H69.9161C69.8825 15.3233 69.8491 15.3174 69.8181 15.3045C69.7871 15.2915 69.7594 15.2719 69.7368 15.247C69.7143 15.2221 69.6975 15.1926 69.6878 15.1605C69.678 15.1283 69.6754 15.0945 69.6802 15.0612L71.374 4.33091C71.3901 4.25768 71.4306 4.19207 71.4888 4.14476C71.547 4.09745 71.6195 4.07122 71.6945 4.07034H73.6227C73.6562 4.06884 73.6897 4.07476 73.7207 4.08769C73.7517 4.10061 73.7794 4.12022 73.8019 4.14512C73.8245 4.17001 73.8412 4.19957 73.851 4.23169C73.8608 4.2638 73.8633 4.29768 73.8585 4.33091L72.1648 15.0612C72.1491 15.1349 72.1089 15.2012 72.0507 15.249C71.9924 15.2968 71.9196 15.3234 71.8443 15.3244V15.3218Z" fill="#8D99A3"/>
<path fill-rule="evenodd" clip-rule="evenodd" d="M3.28819 0.0527344H8.34066C9.76338 0.0527344 11.4519 0.0983343 12.5802 1.09502C13.3345 1.76078 13.7306 2.82 13.6394 3.9613C13.3293 7.81906 11.0219 9.9805 7.92635 9.9805H5.43529C5.01056 9.9805 4.73045 10.2619 4.61059 11.0228L3.91486 15.4525C3.86926 15.7391 3.74549 15.9085 3.524 15.9293H0.406272C0.0610153 15.9293 -0.0614543 15.6688 0.0284427 15.0929L2.26935 0.894379C2.35925 0.323727 2.67324 0.0527344 3.28819 0.0527344Z" fill="#8D99A3"/>
<path fill-rule="evenodd" clip-rule="evenodd" d="M6.44483 4.26562H11.4921C14.202 4.26562 15.2222 5.63753 15.0645 7.65305C14.804 10.9805 12.7923 12.8215 10.1241 12.8215H8.77694C8.41084 12.8215 8.1646 13.0638 8.06558 13.7205L7.49363 17.5378C7.45584 17.7854 7.32556 17.9287 7.13013 17.9482H3.95897C3.66062 17.9482 3.55509 17.7202 3.63326 17.2264L5.5667 4.98871C5.64227 4.49884 5.91065 4.26562 6.44483 4.26562Z" fill="#A6AEB6"/>
<path fill-rule="evenodd" clip-rule="evenodd" d="M4.68311 10.5734L5.56514 4.98806C5.64201 4.49819 5.9104 4.26367 6.44457 4.26367H11.4918C12.327 4.26367 13.0032 4.39396 13.5321 4.63499C13.0253 8.06932 10.8039 9.9767 7.89595 9.9767H5.4088C5.07527 9.978 4.83033 10.1448 4.68311 10.5734Z" fill="#A6AEB6"/>
</svg>
