<svg width="53" height="17" viewBox="0 0 53 17" fill="none" xmlns="http://www.w3.org/2000/svg">
<path fill-rule="evenodd" clip-rule="evenodd" d="M37.625 11.3144C37.6356 8.66086 35.4419 7.51518 33.7387 6.62497C32.6609 6.06202 31.7798 5.6016 31.7798 4.92717C31.7798 4.35233 32.3377 3.7437 33.5251 3.58654C34.9366 3.44728 36.3608 3.69391 37.6419 4.30065L38.3756 0.819585C37.1261 0.352133 35.8019 0.110448 34.4672 0.105469C30.3493 0.105469 27.4871 2.29854 27.4871 5.43149C27.4871 7.74686 29.564 9.03486 31.1345 9.80065C32.705 10.5665 33.3156 11.1056 33.2977 11.8018C33.2977 12.881 32.0072 13.3682 30.803 13.3861C29.3177 13.4051 27.8524 13.046 26.545 12.3418L25.7945 15.8229C27.2735 16.3988 28.8492 16.6882 30.4366 16.6753C34.8156 16.6753 37.6956 14.517 37.7124 11.1752L37.625 11.3144ZM26.3008 0.384954L22.8114 16.4843H18.624L22.1135 0.384954H26.3008ZM43.8545 10.8271L46.0524 4.78802L47.3272 10.8271H43.8545ZM52.3871 16.537H48.5135L48.0072 14.1351H42.7556L41.8998 16.537H37.5029L43.7671 1.62023C44.0556 0.91009 44.743 0.443627 45.5124 0.436669H49.0019L52.3871 16.537ZM13.6503 16.4316L20.4208 0.332237H15.884L11.5398 11.2796L9.79453 1.96833C9.63979 1.02148 8.81874 0.328259 7.85769 0.332237H0.756637L0.651367 0.801679C2.07558 1.08016 3.45977 1.53569 4.76925 2.15928C5.32714 2.42086 5.70505 2.95696 5.76399 3.5696L9.09664 16.4316H13.6503Z" fill="#8D99A3"/>
</svg>
