<svg width="28" height="17" viewBox="0 0 28 17" fill="none" xmlns="http://www.w3.org/2000/svg">
<path d="M17.2668 1.68652H9.92285V14.6172H17.2668V1.68652Z" fill="#F26122"/>
<path d="M10.7186 8.15183C10.7046 5.65763 11.8696 3.29563 13.8766 1.74423C10.4416 -0.883989 5.5076 -0.502329 2.5426 2.62083C-0.422402 5.74413 -0.422402 10.5599 2.5426 13.6832C5.5076 16.8061 10.4416 17.1881 13.8766 14.5595C11.8696 13.0084 10.7046 10.6464 10.7186 8.15183Z" fill="#EA1D25"/>
<path d="M27.4355 8.15177C27.4325 11.2728 25.6015 14.1192 22.7165 15.4833C19.8325 16.8474 16.4005 16.4906 13.8765 14.5642C17.5115 11.7793 18.1404 6.65627 15.2834 3.11627C14.8734 2.60357 14.4015 2.14149 13.8765 1.74004C16.4005 -0.186617 19.8325 -0.543566 22.7165 0.820664C25.6015 2.1849 27.4325 5.03127 27.4355 8.15177Z" fill="#F69E1E"/>
</svg>
