<svg width="50" height="16" viewBox="0 0 50 16" fill="none" xmlns="http://www.w3.org/2000/svg">
<path fill-rule="evenodd" clip-rule="evenodd" d="M35.2949 10.6485C35.3049 8.12762 33.2209 7.03922 31.6029 6.19352C30.5789 5.65872 29.7419 5.22132 29.7419 4.58062C29.7419 4.03452 30.2719 3.45632 31.3999 3.30702C32.7409 3.17472 34.0939 3.40902 35.3109 3.98542L36.0079 0.678411C34.8209 0.234331 33.5629 0.00473 32.2949 0C28.3829 0 25.6639 2.08342 25.6639 5.05972C25.6639 7.25932 27.6369 8.48292 29.1289 9.21042C30.6209 9.93802 31.2009 10.4501 31.1839 11.1115C31.1839 12.1367 29.9579 12.5996 28.8139 12.6166C27.4029 12.6346 26.0109 12.2935 24.7689 11.6245L24.0559 14.9315C25.4609 15.4786 26.9579 15.7536 28.4659 15.7413C32.6259 15.7413 35.3619 13.6909 35.3779 10.5162L35.2949 10.6485ZM24.5369 0.265511L21.2219 15.5599H17.2439L20.5589 0.265511H24.5369ZM41.2129 10.1855L43.3009 4.44842L44.5119 10.1855H41.2129ZM49.3189 15.6099H45.6389L45.1579 13.3281H40.1689L39.3559 15.6099H35.1789L41.1299 1.43902C41.4039 0.76439 42.0569 0.32125 42.7879 0.31464H46.1029L49.3189 15.6099ZM12.5189 15.5098L18.9509 0.21543H14.6409L10.5139 10.6154L8.85593 1.76972C8.70893 0.87021 7.92893 0.21165 7.01593 0.21543H0.269928L0.169922 0.6614C1.52292 0.92596 2.83791 1.35871 4.08191 1.95112C4.61191 2.19962 4.97092 2.70892 5.02692 3.29092L8.19293 15.5098H12.5189Z" fill="#212B36"/>
</svg>
