<svg width="24" height="26" viewBox="0 0 24 26" fill="none" xmlns="http://www.w3.org/2000/svg">
<path d="M22.2783 8.00322H21.0596L18.2971 0.975089C18.1346 0.609464 17.7283 0.446964 17.3627 0.568839C16.9971 0.731339 16.8346 1.13759 16.9564 1.50321L19.5158 8.04384H4.44395L7.00332 1.50321C7.16582 1.13759 6.9627 0.731339 6.59707 0.568839C6.23145 0.406339 5.8252 0.609464 5.6627 0.975089L2.9002 8.00322H1.68145C1.07207 8.00322 0.543945 8.49072 0.543945 9.14071V12.5938C0.543945 13.2032 1.03145 13.7313 1.68145 13.7313H1.72207L2.77832 22.9938C2.94082 24.4157 4.15957 25.5126 5.62207 25.5126H18.2971C19.7596 25.5126 20.9783 24.4157 21.1408 22.9938L22.1971 13.7313H22.2377C22.8471 13.7313 23.3752 13.2438 23.3752 12.5938V9.14071C23.4158 8.53134 22.9283 8.00322 22.2783 8.00322ZM2.00645 9.42509H21.9939V12.2688H2.00645V9.42509ZM19.7596 22.7907C19.6783 23.522 19.0689 24.0501 18.3377 24.0501H5.6627C4.93145 24.0501 4.32207 23.522 4.24082 22.7907L3.18457 13.6907H20.8158L19.7596 22.7907Z" fill="#212B36"/>
<path d="M7.73467 20.6375C8.14092 20.6375 8.46592 20.3125 8.46592 19.9062V16.7781C8.46592 16.3719 8.14092 16.0469 7.73467 16.0469C7.32842 16.0469 7.00342 16.3719 7.00342 16.7781V19.9062C7.00342 20.3125 7.32842 20.6375 7.73467 20.6375Z" fill="#212B36"/>
<path d="M16.2659 20.6375C16.6722 20.6375 16.9972 20.3125 16.9972 19.9062V16.7781C16.9972 16.3719 16.6722 16.0469 16.2659 16.0469C15.8597 16.0469 15.5347 16.3719 15.5347 16.7781V19.9062C15.5753 20.3125 15.9003 20.6375 16.2659 20.6375Z" fill="#212B36"/>
</svg>
