<svg width="10" height="18" viewBox="0 0 10 18" fill="none" xmlns="http://www.w3.org/2000/svg">
<path fill-rule="evenodd" clip-rule="evenodd" d="M2.30951 9.00278L9.7025 1.75393L9.71157 1.74417C10.0883 1.33897 10.0904 0.706394 9.65025 0.300611C9.44618 0.112467 9.14292 -7.49282e-08 8.8652 -9.92075e-08C8.51706 -1.29642e-07 8.25215 0.142032 8.05041 0.328028L8.04343 0.334467L0.54447 7.71467L0.54358 7.71554C-0.187229 8.4299 -0.171766 9.58059 0.533431 10.3072L0.538425 10.3124L8.04382 17.6715L8.05041 17.6775C8.44903 18.0451 9.16205 18.1551 9.65025 17.705C10.0468 17.3394 10.1669 16.687 9.68767 16.2371L2.30951 9.00278Z" fill="#3056D3"/>
</svg>
