<svg xmlns="http://www.w3.org/2000/svg" width="21" height="21" viewBox="0 0 21 21" fill="none">
<path d="M3.82851 21H17.1715H18.3065H20.9998V18.3063V17.6161V3.38399V2.69324V0H18.3065H17.1715H3.82851H2.69351H0V2.69324V3.38422V17.616V18.3063V21H2.69324H3.82851V21ZM14.3555 3.28109C14.3555 3.02582 14.4464 2.80538 14.629 2.61775C14.8111 2.43136 15.0342 2.3379 15.2989 2.3379H17.6778C17.942 2.3379 18.1653 2.43132 18.3477 2.61775C18.5299 2.80511 18.6212 3.02582 18.6212 3.28109V5.53693C18.6212 5.80117 18.5299 6.02493 18.3477 6.20664C18.1653 6.38928 17.942 6.48012 17.6778 6.48012H15.2986C15.0342 6.48012 14.8109 6.38928 14.6287 6.20664C14.4463 6.02497 14.3553 5.80117 14.3553 5.53693V3.28109H14.3555ZM13.5008 8.37238C14.3254 9.16981 14.738 10.1336 14.738 11.2636C14.738 12.3942 14.3254 13.3581 13.5008 14.1551C12.6756 14.953 11.68 15.3514 10.5135 15.3514C9.35577 15.3514 8.3648 14.953 7.53993 14.1551C6.71478 13.3584 6.3027 12.3944 6.3027 11.2636C6.3027 10.1336 6.71502 9.16957 7.53993 8.37238C8.3648 7.57491 9.356 7.17608 10.5135 7.17608C11.6802 7.17608 12.6757 7.57518 13.5008 8.37238ZM5.64554 3.28109C5.64554 3.02582 5.73638 2.80538 5.91902 2.61775C6.10116 2.43136 6.3245 2.3379 6.58897 2.3379H7.08977C7.354 2.3379 7.57731 2.43132 7.75971 2.61775C7.94208 2.80511 8.03319 3.02582 8.03319 3.28109V5.53693C8.03319 5.80117 7.94212 6.02493 7.75971 6.20664C7.57731 6.38928 7.354 6.48012 7.08977 6.48012H6.58897C6.3245 6.48012 6.10116 6.38928 5.91902 6.20664C5.73665 6.02497 5.64554 5.80117 5.64554 5.53693V3.28109ZM2.33794 3.28109C2.33794 3.02582 2.42901 2.80538 2.61141 2.61775C2.79355 2.43136 3.01666 2.3379 3.28136 2.3379H3.78216C4.0464 2.3379 4.2697 2.43132 4.45211 2.61775C4.63448 2.80511 4.72558 3.02582 4.72558 3.28109V5.53693C4.72558 5.80117 4.63451 6.02493 4.45211 6.20664C4.2697 6.38928 4.0464 6.48012 3.78216 6.48012H3.28136C3.01689 6.48012 2.79355 6.38928 2.61141 6.20664C2.42904 6.02497 2.33794 5.80117 2.33794 5.53693V3.28109ZM2.33794 18.2826V9.42318H4.26568C4.08327 9.99731 3.9922 10.5949 3.9922 11.2144C3.9922 12.964 4.62999 14.4572 5.90622 15.6918C7.18223 16.9267 8.71798 17.5438 10.5137 17.5438C11.6984 17.5438 12.7921 17.2619 13.7948 16.6962C14.7974 16.1318 15.5904 15.3632 16.1737 14.3928C16.7569 13.422 17.0485 12.3625 17.0485 11.2142C17.0485 10.5946 16.9575 9.99708 16.7751 9.42295H18.6207V18.2827C18.6207 18.5197 18.5386 18.718 18.3747 18.8771C18.2108 19.0373 18.0147 19.1163 17.7869 19.1163H3.17182C2.93479 19.1163 2.73654 19.0373 2.57709 18.8771C2.41764 18.7179 2.33794 18.5197 2.33794 18.2826Z" fill="#e6f1fa"/>
</svg>