<svg width="71" height="17" viewBox="0 0 71 17" fill="none" xmlns="http://www.w3.org/2000/svg">
<g clip-path="url(#clip0_121_51931)">
<path fill-rule="evenodd" clip-rule="evenodd" d="M6.12283 4.00159H10.9177C13.4922 4.00159 14.4613 5.3049 14.3115 7.21964C14.064 10.3808 12.153 12.1297 9.61813 12.1297H8.33834C7.99054 12.1297 7.75661 12.3599 7.66255 12.9837L7.11919 16.6102C7.0833 16.8453 6.95952 16.9815 6.77387 17.0001H3.76127C3.47783 17.0001 3.37758 16.7835 3.45184 16.3144L5.28861 4.68852C5.3604 4.22314 5.61537 4.00159 6.12283 4.00159Z" fill="#009EE3"/>
<path fill-rule="evenodd" clip-rule="evenodd" d="M26.9403 3.78613C28.558 3.78613 30.0507 4.66367 29.8465 6.85071C29.5989 9.44991 28.2065 10.8881 26.0096 10.8943H24.0899C23.8138 10.8943 23.6802 11.1196 23.6084 11.5813L23.2371 13.9416C23.1814 14.298 22.9982 14.4738 22.7284 14.4738H20.9423C20.6577 14.4738 20.5587 14.2918 20.6218 13.8846L22.0959 4.42479C22.1689 3.95941 22.3434 3.78613 22.6615 3.78613H26.9366H26.9403ZM24.0317 8.85086H25.486C26.3957 8.8162 26.9997 8.18621 27.0604 7.04998C27.0975 6.3482 26.6235 5.84569 25.8697 5.8494L24.5008 5.85559L24.0317 8.85086ZM34.702 13.7497C34.8654 13.6012 35.0313 13.5245 35.0077 13.7076L34.9496 14.1458C34.9199 14.3748 35.0102 14.4961 35.2231 14.4961H36.8099C37.0772 14.4961 37.2072 14.3884 37.2728 13.975L38.2506 7.83841C38.3001 7.53022 38.2246 7.37922 37.9906 7.37922H36.2455C36.0883 7.37922 36.0115 7.46709 35.9707 7.70721L35.9063 8.08471C35.8729 8.28151 35.7825 8.31617 35.6984 8.11813C35.4026 7.41759 34.6476 7.10321 33.5943 7.12796C31.1473 7.17871 29.4974 9.03652 29.3204 11.4179C29.1843 13.2596 30.5037 14.7065 32.2439 14.7065C33.5064 14.7065 34.0708 14.3352 34.707 13.7534L34.702 13.7497ZM33.3727 12.8054C32.3194 12.8054 31.5855 11.9649 31.7377 10.9352C31.8899 9.90539 32.8752 9.06498 33.9285 9.06498C34.9817 9.06498 35.7157 9.90539 35.5635 10.9352C35.4112 11.9649 34.4272 12.8054 33.3727 12.8054ZM41.356 7.35941H39.7469C39.4152 7.35941 39.2803 7.60695 39.3855 7.91143L41.3832 13.7609L39.4239 16.5445C39.2593 16.7772 39.3868 16.9888 39.6182 16.9888H41.4265C41.5319 17.001 41.6386 16.9826 41.7338 16.9359C41.8291 16.8892 41.9089 16.816 41.9637 16.7252L48.1077 7.91267C48.2971 7.64161 48.208 7.35694 47.8973 7.35694H46.1855C45.8922 7.35694 45.7746 7.47328 45.6063 7.71711L43.0442 11.4303L41.8993 7.70845C41.8325 7.48318 41.6654 7.35941 41.3572 7.35941H41.356Z" fill="#113984"/>
<path fill-rule="evenodd" clip-rule="evenodd" d="M54.4991 3.78617C56.1168 3.78617 57.6095 4.66371 57.4053 6.85075C57.1578 9.44995 55.7653 10.8882 53.5684 10.8944H51.6499C51.3739 10.8944 51.2402 11.1196 51.1684 11.5813L50.7971 13.9416C50.7414 14.2981 50.5583 14.4738 50.2884 14.4738H48.5024C48.2177 14.4738 48.1187 14.2919 48.1818 13.8847L49.6584 4.42235C49.7315 3.95697 49.906 3.78369 50.2241 3.78369H54.4991V3.78617ZM51.5905 8.85089H53.0448C53.9545 8.81624 54.5585 8.18624 54.6192 7.05002C54.6563 6.34824 54.1823 5.84572 53.4285 5.84944L52.0596 5.85563L51.5905 8.85089ZM62.2609 13.7498C62.4242 13.6012 62.5901 13.5245 62.5666 13.7077L62.5084 14.1458C62.4787 14.3748 62.569 14.4961 62.7819 14.4961H64.3687C64.636 14.4961 64.766 14.3884 64.8316 13.975L65.8094 7.83844C65.8589 7.53025 65.7834 7.37925 65.5495 7.37925H63.8068C63.6496 7.37925 63.5728 7.46713 63.532 7.70725L63.4676 8.08475C63.4342 8.28154 63.3439 8.3162 63.2597 8.11817C62.9639 7.41762 62.2089 7.10324 61.1556 7.128C58.7086 7.17874 57.0587 9.03655 56.8817 11.4179C56.7456 13.2596 58.065 14.7065 59.8052 14.7065C61.0677 14.7065 61.6321 14.3352 62.2683 13.7535L62.2609 13.7498ZM60.9328 12.8054C59.8795 12.8054 59.1455 11.965 59.2978 10.9352C59.45 9.90543 60.4352 9.06502 61.4885 9.06502C62.5418 9.06502 63.2758 9.90543 63.1235 10.9352C62.9713 11.965 61.9861 12.8054 60.9328 12.8054ZM68.2514 14.506H66.4196C66.3877 14.5074 66.3559 14.5018 66.3265 14.4895C66.2971 14.4772 66.2707 14.4586 66.2493 14.435C66.2279 14.4113 66.212 14.3832 66.2027 14.3527C66.1934 14.3222 66.191 14.29 66.1955 14.2585L67.8046 4.06465C67.8199 3.99508 67.8584 3.93276 67.9137 3.88781C67.969 3.84287 68.0378 3.81795 68.1091 3.81711H69.9409C69.9727 3.81569 70.0045 3.82131 70.034 3.8336C70.0634 3.84588 70.0898 3.86451 70.1112 3.88815C70.1326 3.9118 70.1485 3.93988 70.1578 3.97039C70.1671 4.00091 70.1695 4.03309 70.1649 4.06465L68.5559 14.2585C68.541 14.3285 68.5028 14.3914 68.4474 14.4368C68.3921 14.4822 68.323 14.5075 68.2514 14.5085V14.506Z" fill="#009EE3"/>
<path fill-rule="evenodd" clip-rule="evenodd" d="M3.12427 0H7.92412C9.2757 0 10.8798 0.04332 11.9516 0.990171C12.6683 1.62264 13.0445 2.6289 12.9579 3.71314C12.6633 7.37801 10.4713 9.43138 7.53052 9.43138H5.16402C4.76052 9.43138 4.49441 9.69872 4.38054 10.4215L3.71961 14.6298C3.67629 14.9021 3.5587 15.063 3.34829 15.0828H0.386447C0.0584528 15.0828 -0.0578933 14.8352 0.0275089 14.2882L2.15637 0.799562C2.24178 0.257443 2.54007 0 3.12427 0Z" fill="#113984"/>
<path fill-rule="evenodd" clip-rule="evenodd" d="M4.44971 9.9945L5.28764 4.68842C5.36067 4.22304 5.61563 4.00024 6.1231 4.00024H10.918C11.7114 4.00024 12.3538 4.12402 12.8563 4.35299C12.3748 7.61561 10.2645 9.42762 7.50191 9.42762H5.13912C4.82226 9.42886 4.58957 9.58729 4.44971 9.9945Z" fill="#172C70"/>
</g>
<defs>
<clipPath id="clip0_121_51931">
<rect width="70.1697" height="17" fill="white"/>
</clipPath>
</defs>
</svg>
