<svg width="52" height="19" viewBox="0 0 52 19" fill="none" xmlns="http://www.w3.org/2000/svg">
<path d="M4.81055 4.93244H6.6082L5.70937 2.64453L4.81055 4.93244Z" fill="#8D99A3"/>
<path d="M27.118 2.97038C26.9546 2.88867 26.7094 2.88867 26.4643 2.88867H24.8301V4.19605H26.4643C26.7094 4.19605 26.9546 4.19605 27.118 4.11434C27.2814 4.03263 27.3631 3.78749 27.3631 3.54236C27.4448 3.21552 27.2814 3.05209 27.118 2.97038Z" fill="#8D99A3"/>
<path d="M44.6037 0.519531V1.50006L44.1134 0.519531H40.273V1.50006L39.7827 0.519531H34.5532C33.6544 0.519531 32.919 0.682954 32.2653 1.0098V0.519531H28.5883V1.0098C28.1797 0.682954 27.6895 0.519531 27.0358 0.519531H13.8803L12.9815 2.56231L12.0826 0.519531H7.91537V1.50006L7.42511 0.519531H3.91153L2.27731 4.35995L0.397949 8.60893H4.56522L5.05548 7.30155H6.19944L6.68971 8.60893H11.429V7.6284L11.8375 8.60893H14.2071L14.6157 7.6284V8.60893H25.9735V6.48444H26.137C26.3004 6.48444 26.3004 6.48444 26.3004 6.72958V8.52722H32.1836V8.03695C32.6738 8.28209 33.4092 8.52722 34.3898 8.52722H36.8411L37.3314 7.21984H38.4753L38.9656 8.52722H43.7048V7.30155L44.4403 8.52722H48.2807V0.519531H44.6037ZM16.9853 7.38326H15.5962V2.88915L13.6352 7.38326H12.4095L10.4484 2.88915V7.38326H7.67024L7.09826 6.1576H4.32008L3.82982 7.46498H2.27731L4.72864 1.66349H6.77142L9.05933 7.13813V1.66349H11.2655L13.0632 5.58562L14.6974 1.66349H16.9853V7.38326ZM22.5417 2.88915H19.3549V3.9514H22.46V5.09535H19.3549V6.23931H22.5417V7.46498H17.9658V1.66349H22.5417V2.88915ZM28.67 5.25877C28.8334 5.58562 28.9151 5.83075 28.9151 6.32102V7.46498H27.526V6.72958C27.526 6.40273 27.526 5.91246 27.2809 5.58562C27.0358 5.34049 26.7906 5.34049 26.3004 5.34049H24.8296V7.46498H23.4405V1.66349H26.5455C27.2809 1.66349 27.7712 1.66349 28.1797 1.90862C28.5883 2.15375 28.8334 2.56231 28.8334 3.216C28.8334 4.11482 28.2614 4.60509 27.8529 4.76851C28.2614 4.85022 28.5066 5.09535 28.67 5.25877ZM31.1213 7.38326H29.7322V1.58178H31.1213V7.38326ZM47.2184 7.38326H45.2574L42.6426 3.05258V7.38326H39.8644L39.3742 6.1576H36.5143L36.024 7.46498H34.4715C33.8178 7.46498 33.0007 7.30155 32.5104 6.81129C32.0202 6.32102 31.775 5.66733 31.775 4.60509C31.775 3.78798 31.9384 2.97086 32.5104 2.31717C32.919 1.82691 33.6544 1.66349 34.5532 1.66349H35.8606V2.88915H34.5532C34.0629 2.88915 33.8178 2.97086 33.491 3.216C33.2458 3.46113 33.0824 3.9514 33.0824 4.52338C33.0824 5.17706 33.1641 5.58562 33.491 5.91246C33.7361 6.1576 34.0629 6.23931 34.4715 6.23931H35.0435L36.9228 1.7452H38.9656L41.2535 7.21984V1.7452H43.2963L45.6659 5.74904V1.7452H47.055V7.38326H47.2184Z" fill="#8D99A3"/>
<path d="M37.0046 4.93244H38.884L37.9852 2.64453L37.0046 4.93244ZM23.1137 16.6988V12.0413L20.9893 14.3292L23.1137 16.6988Z" fill="#8D99A3"/>
<path d="M14.3711 12.6133V13.6755H17.3944V14.8195H14.3711V16.0451H17.7212L19.2738 14.3292L17.803 12.6133H14.3711Z" fill="#8D99A3"/>
<path d="M26.2194 12.6133H24.5034V14.0841H26.3011C26.7913 14.0841 27.1182 13.8389 27.1182 13.3487C27.0365 12.8584 26.7096 12.6133 26.2194 12.6133Z" fill="#8D99A3"/>
<path d="M51.4674 14.0022V10.3252H48.0356C47.3002 10.3252 46.7282 10.4886 46.3197 10.8155V10.3252H42.5609C41.989 10.3252 41.2536 10.4886 40.9267 10.8155V10.3252H34.3081V10.8155C33.8179 10.4069 32.919 10.3252 32.5105 10.3252H28.0981V10.8155C27.6895 10.4069 26.709 10.3252 26.2187 10.3252H21.3161L20.1721 11.5509L19.1099 10.3252H11.7559V18.3329H18.9464L20.0904 17.1072L21.1526 18.3329H25.565V16.4535H26.137C26.709 16.4535 27.4444 16.4535 28.0164 16.2084V18.4146H31.6934V16.2901H31.8568C32.1019 16.2901 32.1019 16.2901 32.1019 16.5352V18.4146H43.2146C43.95 18.4146 44.6854 18.2512 45.094 17.9243V18.4146H48.6076C49.343 18.4146 50.0784 18.3329 50.5686 18.006C51.3857 17.5158 51.876 16.617 51.876 15.5547C51.876 14.9827 51.7126 14.4108 51.4674 14.0022ZM26.137 15.3096H24.5028V17.2706H21.888L20.2538 15.3913L18.5379 17.2706H13.1449V11.4692H18.6196L20.2538 13.3485L21.9697 11.4692H26.3004C27.3627 11.4692 28.5883 11.796 28.5883 13.3485C28.5066 14.9827 27.3627 15.3096 26.137 15.3096ZM34.3081 14.9827C34.4715 15.2279 34.5533 15.5547 34.5533 16.045V17.1889H33.1642V16.4535C33.1642 16.1267 33.1642 15.5547 32.919 15.3096C32.7556 15.0644 32.4288 15.0644 31.9385 15.0644H30.4677V17.1889H29.0786V11.3874H32.1836C32.8373 11.3874 33.4093 11.3874 33.8179 11.6326C34.2264 11.8777 34.5533 12.2863 34.5533 12.94C34.5533 13.8388 33.9813 14.329 33.5727 14.4925C33.9813 14.6559 34.2264 14.8193 34.3081 14.9827ZM39.9462 12.6131H36.7595V13.6754H39.8645V14.8193H36.7595V15.9633H39.9462V17.1889H35.3704V11.3874H39.9462V12.6131ZM43.3781 17.1889H40.7633V15.9633H43.3781C43.6232 15.9633 43.7866 15.9633 43.95 15.7998C44.0317 15.7181 44.1135 15.5547 44.1135 15.3913C44.1135 15.2279 44.0317 15.0644 43.95 14.9827C43.8683 14.901 43.7049 14.8193 43.4598 14.8193C42.1524 14.7376 40.5999 14.8193 40.5999 13.0217C40.5999 12.2046 41.0901 11.3057 42.5609 11.3057H45.2574V12.6948H42.7244C42.4792 12.6948 42.3158 12.6948 42.1524 12.7765C41.989 12.8582 41.989 13.0217 41.989 13.1851C41.989 13.4302 42.1524 13.5119 42.3158 13.5936C42.4792 13.6754 42.6427 13.6754 42.8061 13.6754H43.5415C44.2769 13.6754 44.7671 13.8388 45.094 14.1656C45.3391 14.4108 45.5025 14.8193 45.5025 15.3913C45.5025 16.617 44.7671 17.1889 43.3781 17.1889ZM50.4052 16.617C50.0784 16.9438 49.5064 17.1889 48.6893 17.1889H46.0745V15.9633H48.6893C48.9344 15.9633 49.0978 15.9633 49.2613 15.7998C49.343 15.7181 49.4247 15.5547 49.4247 15.3913C49.4247 15.2279 49.343 15.0644 49.2613 14.9827C49.1795 14.901 49.0161 14.8193 48.771 14.8193C47.4636 14.7376 45.9111 14.8193 45.9111 13.0217C45.9111 12.2046 46.4014 11.3057 47.8722 11.3057H50.5686V12.6948H48.1173C47.8722 12.6948 47.7087 12.6948 47.5453 12.7765C47.3819 12.8582 47.3819 13.0217 47.3819 13.1851C47.3819 13.4302 47.4636 13.5119 47.7087 13.5936C47.8722 13.6754 48.0356 13.6754 48.199 13.6754H48.9344C49.6698 13.6754 50.1601 13.8388 50.4869 14.1656C50.5686 14.1656 50.5686 14.2473 50.5686 14.2473C50.8138 14.5742 50.8955 14.9827 50.8955 15.3913C50.8955 15.8816 50.7321 16.2901 50.4052 16.617Z" fill="#8D99A3"/>
<path d="M32.8374 12.7767C32.6739 12.695 32.4288 12.695 32.1837 12.695H30.5495V14.0024H32.1837C32.4288 14.0024 32.6739 14.0024 32.8374 13.9207C33.0008 13.839 33.0825 13.5938 33.0825 13.3487C33.1642 13.0218 33.0008 12.8584 32.8374 12.7767ZM27.1176 2.97138C26.9542 2.88966 26.709 2.88966 26.4639 2.88966H24.8297V4.19704H26.4639C26.709 4.19704 26.9542 4.19704 27.1176 4.11533C27.281 4.03362 27.3627 3.78849 27.3627 3.54335C27.4444 3.21651 27.281 3.05309 27.1176 2.97138ZM37.0046 4.93244H38.884L37.9852 2.64453L37.0046 4.93244ZM23.1137 16.6988V12.0413L20.9893 14.3292L23.1137 16.6988ZM26.2188 12.6133H24.5028V14.0841H26.3005C26.7907 14.0841 27.1176 13.839 27.1176 13.3487C27.0359 12.8584 26.709 12.6133 26.2188 12.6133Z" fill="#8D99A3"/>
<path d="M32.8377 12.777C32.6743 12.6953 32.4292 12.6953 32.184 12.6953H30.5498V14.0027H32.184C32.4292 14.0027 32.6743 14.0027 32.8377 13.921C33.0011 13.8393 33.0828 13.5941 33.0828 13.349C33.1645 13.0222 33.0011 12.8587 32.8377 12.777Z" fill="#8D99A3"/>
<path d="M25.6468 17.0255L24.5028 15.7998V17.1889H21.8063L20.1721 15.3096L18.3745 17.1889H12.9815V11.4692H18.4562L20.1721 13.3485L20.9892 12.368L18.9464 10.3252H11.7559V18.3329H18.9464L20.1721 17.1072L21.2344 18.3329H25.6468V17.0255Z" fill="#8D99A3"/>
<path d="M17.1487 8.52722L16.0865 7.38326H15.5962V6.893L14.3706 5.66733L13.5534 7.38326H12.4095L10.4484 2.88915V7.38326H7.67024L7.09826 6.1576H4.32008L3.7481 7.38326H2.2773L4.72864 1.66349H6.77142L9.05933 7.13813V1.66349H10.285L9.14104 0.519531H7.91537V1.50006L7.50682 0.519531H3.91153L2.2773 4.35995L0.397949 8.52722H4.64693L5.13719 7.30155H6.28115L6.85313 8.52722H11.4289V7.54669L11.8375 8.52722H14.2071L14.6157 7.54669V8.52722H17.1487Z" fill="#8D99A3"/>
<path d="M13.3899 4.76929L12.0825 3.46191L13.063 5.5864L13.3899 4.76929Z" fill="#8D99A3"/>
<path d="M50.569 17.9243C51.3044 17.4341 51.7947 16.617 51.8764 15.7181L50.7324 14.5742C50.8142 14.8193 50.8959 15.0645 50.8959 15.3913C50.8959 15.8816 50.7324 16.2901 50.4056 16.617C50.0788 16.9438 49.5068 17.1889 48.6897 17.1889H46.0749V15.9633H48.6897C48.9348 15.9633 49.0982 15.9633 49.2616 15.7999C49.3434 15.7181 49.4251 15.5547 49.4251 15.3913C49.4251 15.2279 49.3434 15.0645 49.2616 14.9827C49.1799 14.901 49.0165 14.8193 48.7714 14.8193C47.464 14.7376 45.9115 14.8193 45.9115 13.0217C45.9115 12.2046 46.4018 11.4692 47.6274 11.3057L46.7286 10.4069C46.5652 10.4886 46.4835 10.5703 46.4018 10.5703V10.0801H42.643C42.0711 10.0801 41.3357 10.2435 41.0088 10.5703V10.0801H34.3085V10.5703C33.8182 10.1618 32.9194 10.0801 32.5109 10.0801H28.0985V10.5703C27.6899 10.1618 26.7094 10.0801 26.2191 10.0801H21.3164L20.1725 11.3057L19.1102 10.0801H18.2114L20.6628 12.5314L21.8884 11.224H26.2191C27.2814 11.224 28.507 11.5509 28.507 13.1034C28.507 14.7376 27.3631 15.0645 26.1374 15.0645H24.5032V16.2901L25.7288 17.5158V16.2901H26.1374C26.7094 16.2901 27.4448 16.2901 28.0168 16.045V18.2512H31.6938V16.1267H31.8572C32.1023 16.1267 32.1023 16.1267 32.1023 16.3718V18.2512H43.215C43.9504 18.2512 44.6858 18.0878 45.0944 17.7609V18.2512H48.608C49.2616 18.3329 49.997 18.2512 50.569 17.9243ZM34.3085 14.9827C34.4719 15.2279 34.5536 15.5547 34.5536 16.045V17.1889H33.1646V16.4535C33.1646 16.1267 33.1646 15.5547 32.9194 15.3096C32.756 15.0645 32.4292 15.0645 31.9389 15.0645H30.4681V17.1889H29.079V11.3875H32.184C32.8377 11.3875 33.4097 11.3875 33.8182 11.6326C34.2268 11.8777 34.5536 12.2863 34.5536 12.94C34.5536 13.8388 33.9817 14.3291 33.5731 14.4925C33.9817 14.6559 34.2268 14.8193 34.3085 14.9827ZM39.9466 12.6131H36.7598V13.6754H39.8649V14.8193H36.7598V15.9633H39.9466V17.1889H35.3708V11.3875H39.9466V12.6131ZM43.3784 17.1889H40.7637V15.9633H43.3784C43.6236 15.9633 43.787 15.9633 43.9504 15.7999C44.0321 15.7181 44.1138 15.5547 44.1138 15.3913C44.1138 15.2279 44.0321 15.0645 43.9504 14.9827C43.8687 14.901 43.7053 14.8193 43.4602 14.8193C42.1528 14.7376 40.6003 14.8193 40.6003 13.0217C40.6003 12.2046 41.0905 11.3057 42.5613 11.3057H45.2578V12.6948H42.7248C42.4796 12.6948 42.3162 12.6948 42.1528 12.7765C41.9894 12.8583 41.9894 13.0217 41.9894 13.1851C41.9894 13.4302 42.1528 13.5119 42.3162 13.5937C42.4796 13.6754 42.643 13.6754 42.8065 13.6754H43.5419C44.2773 13.6754 44.7675 13.8388 45.0944 14.1656C45.3395 14.4108 45.5029 14.8193 45.5029 15.3913C45.5029 16.617 44.7675 17.1889 43.3784 17.1889Z" fill="#8D99A3"/>
<path d="M47.3013 13.1856C47.3013 13.4307 47.383 13.5124 47.6281 13.5941C47.7915 13.6758 47.955 13.6758 48.1184 13.6758H48.8538C49.3441 13.6758 49.6709 13.7576 49.9977 13.921L48.7721 12.6953H48.0367C47.7915 12.6953 47.6281 12.6953 47.4647 12.777C47.383 12.8587 47.3013 13.0222 47.3013 13.1856Z" fill="#8D99A3"/>
<path d="M44.4409 8.2822L44.6043 8.52733H44.686L44.4409 8.2822ZM39.9468 3.78809L41.3359 7.13824V5.17717L39.9468 3.78809Z" fill="#8D99A3"/>
<path d="M25.9735 6.48476H26.1369C26.3003 6.48476 26.3003 6.48476 26.3003 6.7299V8.52754H32.1835V8.03727C32.6738 8.28241 33.4092 8.52754 34.3897 8.52754H36.8411L37.3313 7.22016H38.4753L38.9656 8.52754H43.7048V7.71043L42.5608 6.56647V7.4653H39.7827L39.3741 6.15792H36.5142L36.024 7.4653H34.4714C33.8178 7.4653 33.0006 7.30187 32.5104 6.81161C32.0201 6.32134 31.775 5.66765 31.775 4.60541C31.775 3.7883 31.9384 2.97118 32.5104 2.31749C32.9189 1.82723 33.6543 1.66381 34.5532 1.66381H35.8605V2.88947H34.5532C34.0629 2.88947 33.8178 2.97118 33.4909 3.21632C33.2458 3.46145 33.0824 3.95172 33.0824 4.5237C33.0824 5.17739 33.1641 5.58594 33.4909 5.91279C33.736 6.15792 34.0629 6.23963 34.4714 6.23963H35.0434L36.9228 1.74552H37.7399L36.5959 0.601562H34.4714C33.5726 0.601562 32.8372 0.764984 32.1835 1.09183V0.601562H28.5882V1.09183C28.1797 0.764984 27.6894 0.601562 27.0357 0.601562H13.8802L12.9814 2.64434L12.0826 0.601562H8.4873L9.63126 1.74552H11.2655L12.6546 4.76883L13.1448 5.2591L14.6156 1.66381H16.9036V7.4653H15.5145V2.97118L14.1254 6.23963L16.495 8.60925H25.8918L25.9735 6.48476ZM29.7322 1.66381H31.1213V7.4653H29.7322V1.66381ZM22.5416 2.88947H19.3549V3.95172H22.4599V5.09567H19.3549V6.23963H22.5416V7.4653H17.9658V1.66381H22.5416V2.88947ZM24.8295 7.38359H23.4404V1.5821H26.5455C27.2809 1.5821 27.7711 1.5821 28.1797 1.82723C28.5882 2.07236 28.8334 2.48092 28.8334 3.13461C28.8334 4.03343 28.2614 4.5237 27.8528 4.68712C28.1797 4.76883 28.4248 5.01396 28.5065 5.17738C28.67 5.50423 28.7517 5.74936 28.7517 6.23963V7.38359H27.3626V6.64819C27.3626 6.32134 27.3626 5.83107 27.1174 5.50423C27.0357 5.34081 26.7906 5.34081 26.3003 5.34081H24.8295V7.38359Z" fill="#8D99A3"/>
</svg>
