<svg width="75" height="14" viewBox="0 0 75 14" fill="none" xmlns="http://www.w3.org/2000/svg">
<path d="M39.8629 13.1897C43.2849 13.1897 46.0589 10.4157 46.0589 6.9938C46.0589 3.57187 43.2849 0.797852 39.8629 0.797852C36.441 0.797852 33.667 3.57187 33.667 6.9938C33.667 10.4157 36.441 13.1897 39.8629 13.1897Z" fill="#8D99A3"/>
<path d="M33.667 6.9938C33.667 3.53836 36.4075 0.797852 39.8629 0.797852C43.3184 0.797852 46.0589 3.53836 46.0589 6.9938C46.0589 10.4492 43.3184 13.1897 39.8629 13.1897" fill="#A6AEB6"/>
<path d="M35.5737 2.58514C37.9568 0.202088 41.8888 0.202088 44.2719 2.58514C46.655 4.9682 46.655 8.90024 44.2719 11.2833" fill="#B5BFC9"/>
<path d="M4.00278 1.15529H0.666504V12.8323H4.00278C5.79008 12.8323 7.10076 12.3557 8.17313 11.5216C9.48381 10.4492 10.3179 8.78107 10.3179 6.99377C10.3179 3.53834 7.81567 1.15529 4.00278 1.15529ZM6.7433 9.97259C6.02838 10.5684 5.07516 10.9258 3.64532 10.9258H2.93041V3.18088H3.52617C4.95601 3.18088 5.90923 3.41919 6.62415 4.13411C7.45822 4.84902 7.93483 5.9214 7.93483 6.99377C8.05398 8.06615 7.57737 9.25768 6.7433 9.97259ZM11.3903 1.15529H13.6542V12.8323H11.3903V1.15529ZM19.3735 5.68309C17.9437 5.20648 17.5862 4.84902 17.5862 4.25326C17.5862 3.53834 18.3011 2.94258 19.2543 2.94258C19.9693 2.94258 20.565 3.18088 21.1608 3.8958L22.3523 2.34681C21.3991 1.51274 20.2076 1.03613 18.8969 1.03613C16.8713 1.03613 15.2031 2.46597 15.2031 4.37241C15.2031 6.04055 15.9181 6.75547 18.0628 7.58954C19.016 7.947 19.3735 8.06615 19.6118 8.30446C20.0884 8.54276 20.3267 9.01937 20.3267 9.49598C20.3267 10.4492 19.6118 11.1641 18.5394 11.1641C17.4671 11.1641 16.5138 10.5684 16.0372 9.61514L14.6074 11.045C15.6798 12.594 16.9904 13.3089 18.6586 13.3089C21.0416 13.3089 22.7098 11.7599 22.7098 9.49598C22.7098 7.47039 21.9949 6.63631 19.3735 5.68309Z" fill="#8D99A3"/>
<path d="M23.4209 6.99283C23.4209 10.4483 26.1614 13.0696 29.6169 13.0696C30.5701 13.0696 31.4042 12.8313 32.4765 12.3547V9.61419C31.5233 10.5674 30.6892 10.9249 29.736 10.9249C27.4721 10.9249 25.804 9.25673 25.804 6.87368C25.804 4.60977 27.4721 2.82248 29.6169 2.82248C30.6892 2.82248 31.5233 3.17994 32.4765 4.13316V1.39265C31.5233 0.91604 30.6892 0.677734 29.6169 0.677734C26.2806 0.91604 23.4209 3.65655 23.4209 6.99283Z" fill="#8D99A3"/>
<path d="M51.1798 9.01838L48.0818 1.1543H45.5796L50.4649 13.1887H51.7755L56.8991 1.1543H54.3969L51.1798 9.01838ZM57.8523 12.8313H64.4057V10.9248H60.2354V7.7077H64.2866V5.6821H60.2354V3.1799H64.4057V1.1543H57.8523V12.8313Z" fill="#8D99A3"/>
<path d="M70.8364 7.94591C72.6234 7.5885 73.5765 6.39716 73.5765 4.61015C73.5765 2.46574 72.0278 1.15527 69.4068 1.15527H65.9519V12.8304H68.2155V8.18417H68.5729L71.7895 12.8304H74.5296L70.8364 7.94591ZM68.9303 6.5163H68.2155V2.94228H68.9303C70.3599 2.94228 71.1938 3.53795 71.1938 4.72929C71.1938 5.92063 70.3599 6.5163 68.9303 6.5163ZM4.00226 1.15527H0.666504V12.8304H4.00226C5.78927 12.8304 7.09974 12.3539 8.17195 11.5199C9.48242 10.4477 10.3164 8.77984 10.3164 6.99283C10.3164 3.53795 7.81454 1.15527 4.00226 1.15527ZM6.74234 9.97118C6.02753 10.5669 5.07446 10.9243 3.64485 10.9243H2.93005V3.18055H3.52572C4.95533 3.18055 5.9084 3.41881 6.6232 4.13362C7.45714 4.84842 7.93368 5.92063 7.93368 6.99283C8.05281 8.06504 7.57627 9.25638 6.74234 9.97118ZM11.3886 1.15527H13.6521V12.8304H11.3886V1.15527ZM19.3705 5.68236C17.9409 5.20582 17.5835 4.84842 17.5835 4.25275C17.5835 3.53795 18.2983 2.94228 19.2514 2.94228C19.9662 2.94228 20.5619 3.18054 21.1576 3.89535L22.3489 2.34661C21.3958 1.51267 20.2045 1.03613 18.894 1.03613C16.8687 1.03613 15.2008 2.46574 15.2008 4.37189C15.2008 6.03976 15.9157 6.75456 18.0601 7.5885C19.0131 7.9459 19.3705 8.06504 19.6088 8.30331C20.0853 8.54157 20.3236 9.01811 20.3236 9.49465C20.3236 10.4477 19.6088 11.1625 18.5366 11.1625C17.4644 11.1625 16.5113 10.5669 16.0348 9.61378L14.6052 11.0434C15.6774 12.5921 16.9879 13.3069 18.6557 13.3069C21.0384 13.3069 22.7063 11.7582 22.7063 9.49465C22.7063 7.46937 21.9915 6.63543 19.3705 5.68236ZM29.7352 13.0687C30.6883 13.0687 31.5222 12.8304 32.5944 12.3539V9.61378C31.6413 10.5669 30.8074 10.9243 29.8543 10.9243C27.5908 10.9243 25.9229 9.25638 25.9229 6.8737C25.9229 5.68236 26.3994 4.72929 27.1143 3.89535L25.5655 2.34661C24.3742 3.41881 23.5402 5.08669 23.5402 6.8737C23.4211 10.4477 26.1612 13.0687 29.7352 13.0687Z" fill="#8D99A3"/>
<path d="M70.8374 7.94601C72.6247 7.58855 73.5779 6.39702 73.5779 4.60973C73.5779 2.46498 72.0289 1.1543 69.4076 1.1543H65.9521V12.8313H68.2161V8.18431H68.5735L71.7906 12.8313H74.5312L70.8374 7.94601ZM68.931 6.51617H68.2161V2.94159H68.931C70.3608 2.94159 71.1949 3.53735 71.1949 4.72888C71.1949 5.92041 70.3608 6.51617 68.931 6.51617Z" fill="#8D99A3"/>
<path d="M62.3774 10.9253H60.2327V8.78052L57.8496 6.39746V12.8317H64.2839L62.3774 10.9253Z" fill="#8D99A3"/>
<path d="M53.8011 2.34583L51.1798 9.01838L48.0818 1.1543H45.5796L50.4648 13.1887H51.7755L55.5884 4.13312L53.8011 2.34583Z" fill="#8D99A3"/>
</svg>
