<svg width="53" height="70" viewBox="0 0 53 70" fill="none" xmlns="http://www.w3.org/2000/svg">
<path d="M1.88244 33.2522C2.92209 33.2522 3.76488 34.0862 3.76488 35.1151C3.76488 36.1439 2.92209 36.9779 1.88244 36.9779C0.84279 36.9779 4.54444e-08 36.1439 0 35.1151C-4.54444e-08 34.0862 0.84279 33.2522 1.88244 33.2522Z" fill="white" fill-opacity="0.3"/>
<path d="M1.88244 16.86C2.92209 16.86 3.76488 17.694 3.76488 18.7228C3.76488 19.7517 2.92209 20.5857 1.88244 20.5857C0.84279 20.5857 4.54444e-08 19.7517 0 18.7228C-4.54444e-08 17.694 0.84279 16.86 1.88244 16.86Z" fill="white" fill-opacity="0.3"/>
<path d="M1.88244 0.467147C2.92209 0.467147 3.76488 1.30116 3.76488 2.32997C3.76488 3.35878 2.92209 4.19279 1.88244 4.19279C0.84279 4.19279 4.54444e-08 3.35878 0 2.32997C-4.54444e-08 1.30116 0.84279 0.467147 1.88244 0.467147Z" fill="white" fill-opacity="0.3"/>
<path d="M17.9867 33.2529C19.0263 33.2529 19.8691 34.0869 19.8691 35.1157C19.8691 36.1445 19.0263 36.9785 17.9867 36.9785C16.947 36.9785 16.1042 36.1445 16.1042 35.1157C16.1042 34.0869 16.947 33.2529 17.9867 33.2529Z" fill="white" fill-opacity="0.3"/>
<path d="M34.5522 33.2529C35.5918 33.2529 36.4346 34.0869 36.4346 35.1157C36.4346 36.1445 35.5918 36.9785 34.5522 36.9785C33.5125 36.9785 32.6698 36.1445 32.6698 35.1157C32.6698 34.0869 33.5125 33.2529 34.5522 33.2529Z" fill="white" fill-opacity="0.3"/>
<path d="M51.1176 33.2529C52.1572 33.2529 53 34.0869 53 35.1157C53 36.1445 52.1572 36.9785 51.1176 36.9785C50.0779 36.9785 49.2351 36.1445 49.2351 35.1157C49.2351 34.0869 50.0779 33.2529 51.1176 33.2529Z" fill="white" fill-opacity="0.3"/>
<path d="M17.9867 16.86C19.0263 16.86 19.8691 17.694 19.8691 18.7228C19.8691 19.7517 19.0263 20.5857 17.9867 20.5857C16.947 20.5857 16.1042 19.7517 16.1042 18.7228C16.1042 17.694 16.947 16.86 17.9867 16.86Z" fill="white" fill-opacity="0.3"/>
<path d="M34.5522 16.86C35.5918 16.86 36.4346 17.694 36.4346 18.7228C36.4346 19.7517 35.5918 20.5857 34.5522 20.5857C33.5125 20.5857 32.6698 19.7517 32.6698 18.7228C32.6698 17.694 33.5125 16.86 34.5522 16.86Z" fill="white" fill-opacity="0.3"/>
<path d="M51.1176 16.86C52.1572 16.86 53 17.694 53 18.7228C53 19.7517 52.1572 20.5857 51.1176 20.5857C50.0779 20.5857 49.2351 19.7517 49.2351 18.7228C49.2351 17.694 50.0779 16.86 51.1176 16.86Z" fill="white" fill-opacity="0.3"/>
<path d="M17.9867 0.466812C19.0263 0.466812 19.8691 1.30084 19.8691 2.32965C19.8691 3.35846 19.0263 4.19247 17.9867 4.19247C16.947 4.19247 16.1042 3.35846 16.1042 2.32965C16.1042 1.30084 16.947 0.466812 17.9867 0.466812Z" fill="white" fill-opacity="0.3"/>
<path d="M34.5522 0.466797C35.5918 0.466797 36.4346 1.30084 36.4346 2.32965C36.4346 3.35846 35.5918 4.19247 34.5522 4.19247C33.5125 4.19247 32.6698 3.35846 32.6698 2.32965C32.6698 1.30084 33.5125 0.466797 34.5522 0.466797Z" fill="white" fill-opacity="0.3"/>
<path d="M51.1176 0.466797C52.1572 0.466797 53 1.30084 53 2.32965C53 3.35846 52.1572 4.19247 51.1176 4.19247C50.0779 4.19247 49.2351 3.35846 49.2351 2.32965C49.2351 1.30084 50.0779 0.466797 51.1176 0.466797Z" fill="white" fill-opacity="0.3"/>
<path d="M1.88244 65.7408C2.92209 65.7408 3.76488 66.5748 3.76488 67.6037C3.76488 68.6325 2.92209 69.4665 1.88244 69.4665C0.84279 69.4665 4.54444e-08 68.6325 0 67.6037C-4.54444e-08 66.5748 0.84279 65.7408 1.88244 65.7408Z" fill="white" fill-opacity="0.3"/>
<path d="M1.88244 49.3483C2.92209 49.3483 3.76488 50.1823 3.76488 51.2111C3.76488 52.2399 2.92209 53.0739 1.88244 53.0739C0.84279 53.0739 4.54444e-08 52.2399 0 51.2111C-4.54444e-08 50.1823 0.84279 49.3483 1.88244 49.3483Z" fill="white" fill-opacity="0.3"/>
<path d="M17.9867 65.7408C19.0263 65.7408 19.8691 66.5748 19.8691 67.6037C19.8691 68.6325 19.0263 69.4665 17.9867 69.4665C16.947 69.4665 16.1042 68.6325 16.1042 67.6037C16.1042 66.5748 16.947 65.7408 17.9867 65.7408Z" fill="white" fill-opacity="0.3"/>
<path d="M34.5522 65.7412C35.5918 65.7412 36.4346 66.5752 36.4346 67.604C36.4346 68.6328 35.5918 69.4668 34.5522 69.4668C33.5125 69.4668 32.6698 68.6328 32.6698 67.604C32.6698 66.5752 33.5125 65.7412 34.5522 65.7412Z" fill="white" fill-opacity="0.3"/>
<path d="M51.1176 65.7412C52.1572 65.7412 53 66.5752 53 67.604C53 68.6328 52.1572 69.4668 51.1176 69.4668C50.0779 69.4668 49.2351 68.6328 49.2351 67.604C49.2351 66.5752 50.0779 65.7412 51.1176 65.7412Z" fill="white" fill-opacity="0.3"/>
<path d="M17.9867 49.3479C19.0263 49.3479 19.8691 50.1819 19.8691 51.2108C19.8691 52.2396 19.0263 53.0736 17.9867 53.0736C16.947 53.0736 16.1042 52.2396 16.1042 51.2108C16.1042 50.1819 16.947 49.3479 17.9867 49.3479Z" fill="white" fill-opacity="0.3"/>
<path d="M34.5522 49.3479C35.5918 49.3479 36.4346 50.1819 36.4346 51.2108C36.4346 52.2396 35.5918 53.0736 34.5522 53.0736C33.5125 53.0736 32.6698 52.2396 32.6698 51.2108C32.6698 50.1819 33.5125 49.3479 34.5522 49.3479Z" fill="white" fill-opacity="0.3"/>
<path d="M51.1176 49.3479C52.1572 49.3479 53 50.1819 53 51.2108C53 52.2396 52.1572 53.0736 51.1176 53.0736C50.0779 53.0736 49.2351 52.2396 49.2351 51.2108C49.2351 50.1819 50.0779 49.3479 51.1176 49.3479Z" fill="white" fill-opacity="0.3"/>
</svg>
