<svg xmlns="http://www.w3.org/2000/svg" width="10" height="18" viewBox="0 0 10 18" fill="none">
<path d="M9.00002 7.28781H7.50002H6.9643V6.73773V5.03248V4.4824H7.50002H8.62502C8.91967 4.4824 9.16074 4.26236 9.16074 3.93231V1.01688C9.16074 0.714334 8.94645 0.466797 8.62502 0.466797H6.66966C4.55358 0.466797 3.08036 2.00703 3.08036 4.28987V6.68272V7.23281H2.54465H0.723216C0.348215 7.23281 0 7.53535 0 7.97542V9.95571C0 10.3408 0.294644 10.6983 0.723216 10.6983H2.49108H3.02679V11.2484V16.7767C3.02679 17.1618 3.32144 17.5193 3.75001 17.5193H6.26787C6.42859 17.5193 6.56252 17.4368 6.66966 17.3268C6.7768 17.2168 6.85716 17.0243 6.85716 16.8592V11.2759V10.7258H7.41966H8.62502C8.97324 10.7258 9.24109 10.5058 9.29467 10.1757V10.1482V10.1207L9.66967 8.22295C9.69645 8.03043 9.66967 7.81039 9.50895 7.59036C9.45538 7.45284 9.21431 7.31532 9.00002 7.28781Z" fill="#3056d3"/>
</svg>