<svg width="18" height="18" viewBox="0 0 18 18" fill="none" xmlns="http://www.w3.org/2000/svg">
<path d="M8.71814 11.9661C10.493 11.9661 11.9319 10.5577 11.9319 8.82045C11.9319 7.08316 10.493 5.6748 8.71814 5.6748C6.94324 5.6748 5.50439 7.08316 5.50439 8.82045C5.50439 10.5577 6.94324 11.9661 8.71814 11.9661Z" fill="#CACBCF"/>
<path d="M12.2085 0.414062H5.17151C2.37334 0.414062 0.101562 2.63771 0.101562 5.37658V12.2102C0.101562 15.0033 2.37334 17.227 5.17151 17.227H12.1531C15.0067 17.227 17.2784 15.0033 17.2784 12.2645V5.37658C17.2784 2.63771 15.0067 0.414062 12.2085 0.414062ZM8.7177 12.9424C6.36281 12.9424 4.5066 11.0713 4.5066 8.82052C4.5066 6.56976 6.39051 4.69864 8.7177 4.69864C11.0172 4.69864 12.9011 6.56976 12.9011 8.82052C12.9011 11.0713 11.0449 12.9424 8.7177 12.9424ZM14.5357 5.07829C14.2586 5.37658 13.8431 5.53929 13.3721 5.53929C12.9565 5.53929 12.5409 5.37658 12.2085 5.07829C11.9037 4.78 11.7375 4.40035 11.7375 3.93935C11.7375 3.47835 11.9037 3.12582 12.2085 2.80041C12.5132 2.475 12.9011 2.31229 13.3721 2.31229C13.7877 2.31229 14.2309 2.475 14.5357 2.77329C14.8127 3.12582 15.0067 3.53259 15.0067 3.96647C14.9789 4.40035 14.8127 4.78 14.5357 5.07829Z" fill="#CACBCF"/>
<path d="M13.4003 3.28809C13.0401 3.28809 12.7354 3.58638 12.7354 3.93891C12.7354 4.29144 13.0401 4.58973 13.4003 4.58973C13.7604 4.58973 14.0652 4.29144 14.0652 3.93891C14.0652 3.58638 13.7881 3.28809 13.4003 3.28809Z" fill="#CACBCF"/>
</svg>
