<svg width="18" height="18" viewBox="0 0 18 18" fill="none" xmlns="http://www.w3.org/2000/svg">
<path d="M16.4832 0.414062H1.54964C0.843892 0.414062 0.279297 0.964145 0.279297 1.65175V16.2289C0.279297 16.889 0.843892 17.4666 1.54964 17.4666H16.4267C17.1325 17.4666 17.6971 16.9165 17.6971 16.2289V1.62424C17.7535 0.964145 17.1889 0.414062 16.4832 0.414062ZM5.44534 14.9087H2.87644V6.79501H5.44534V14.9087ZM4.14677 5.66735C3.29988 5.66735 2.6506 5.00725 2.6506 4.20963C2.6506 3.41201 3.32811 2.75191 4.14677 2.75191C4.96544 2.75191 5.64295 3.41201 5.64295 4.20963C5.64295 5.00725 5.0219 5.66735 4.14677 5.66735ZM15.1846 14.9087H12.6157V10.9756C12.6157 10.0405 12.5875 8.80281 11.2607 8.80281C9.90565 8.80281 9.70804 9.84797 9.70804 10.8931V14.9087H7.13913V6.79501H9.65158V7.92268H9.67981C10.0468 7.26258 10.8655 6.60249 12.1358 6.60249C14.7612 6.60249 15.2411 8.25273 15.2411 10.5081V14.9087H15.1846Z" fill="#3056D3"/>
</svg>
