<svg width="168" height="43" viewBox="0 0 168 43" fill="none" xmlns="http://www.w3.org/2000/svg">
<g clip-path="url(#clip0_140_338)">
<path opacity="0.72" d="M41.9328 19.7367C41.9122 19.5272 41.8152 19.3326 41.6603 19.19C41.5054 19.0475 41.3033 18.967 41.0928 18.9639H20.1601C19.5916 18.9778 19.0367 19.1401 18.5504 19.4348C18.0642 19.7295 17.6634 20.1464 17.3881 20.6439C17.1331 21.0888 16.999 21.5927 16.999 22.1055C16.999 22.6183 17.1331 23.1221 17.3881 23.5671C17.4608 23.707 17.5688 23.8255 17.7014 23.9109C17.834 23.9964 17.9865 24.0458 18.144 24.0543H41.1433C41.3538 24.0511 41.5558 23.9706 41.7107 23.8281C41.8657 23.6856 41.9627 23.491 41.9833 23.2815C41.9833 22.6263 41.9833 22.0719 41.9833 21.6015C41.9833 21.1311 41.9832 20.3751 41.9328 19.7367Z" fill="white"/>
<path d="M41.9161 19.7367C41.8994 19.5286 41.806 19.3342 41.6538 19.1913C41.5016 19.0485 41.3016 18.9674 41.0929 18.9639H37.7329C37.6151 18.9652 37.4987 18.9913 37.3917 19.0405C37.2846 19.0897 37.1891 19.1609 37.1113 19.2495C37.033 19.3346 36.9743 19.4359 36.9395 19.5462C36.9046 19.6566 36.8945 19.7732 36.9097 19.8879C36.9097 20.4255 36.9097 20.9631 36.9097 21.5679C36.9055 24.2486 36.2261 26.8852 34.9342 29.2341C33.6423 31.583 31.7794 33.5687 29.5177 35.0079C29.2825 35.1591 29.0642 35.3439 28.8122 35.4783C27.5794 36.1803 26.2568 36.7116 24.8809 37.0575L27.0818 40.9719C27.1565 41.1013 27.2644 41.2085 27.3943 41.2823C27.5242 41.3561 27.6714 41.3939 27.8209 41.3919C27.9097 41.4079 28.0008 41.4079 28.0897 41.3919L28.6272 41.1735L29.1145 40.9719C29.8576 40.6632 30.5814 40.3098 31.2818 39.9135V39.9135C34.5573 38.0684 37.2788 35.3797 39.1637 32.127C41.0486 28.8742 42.028 25.176 42.0002 21.4167C42.0002 20.7951 41.9665 20.3079 41.9161 19.7367Z" fill="white"/>
<path d="M30.0246 35.6821C29.9117 35.4905 29.7322 35.347 29.5205 35.2789H29.2853C29.1394 35.2801 28.9958 35.3146 28.8653 35.3797C26.4697 36.7428 23.7592 37.4553 21.003 37.4461C16.7729 37.4373 12.7185 35.7529 9.72738 32.7617C6.73622 29.7706 5.05187 25.7163 5.04299 21.4861C5.05187 17.256 6.73622 13.2017 9.72738 10.2105C12.7185 7.21936 16.7729 5.53501 21.003 5.52613C23.7579 5.52701 26.4659 6.23875 28.8653 7.59253C28.9907 7.67214 29.1368 7.71304 29.2853 7.71012H29.47C29.5852 7.6847 29.694 7.63577 29.7894 7.56639C29.8848 7.49701 29.9649 7.40868 30.0246 7.30693L31.7046 4.38373C31.8156 4.18931 31.8462 3.95914 31.7897 3.74249C31.7332 3.52584 31.594 3.33992 31.4021 3.22453C28.2398 1.43754 24.6689 0.499916 21.0366 0.502937C15.4698 0.511823 10.1335 2.72717 6.19717 6.66351C2.26083 10.5998 0.0455067 15.9361 0.0366211 21.5029C0.0455067 27.0698 2.26083 32.406 6.19717 36.3424C10.1335 40.2787 15.4698 42.494 21.0366 42.5029C24.6689 42.506 28.2398 41.5683 31.4021 39.7813C31.4982 39.7274 31.5825 39.6547 31.65 39.5676C31.7175 39.4804 31.7668 39.3806 31.795 39.2741C31.8232 39.1676 31.8298 39.0564 31.8143 38.9473C31.7987 38.8382 31.7614 38.7334 31.7046 38.6389L30.0246 35.6821Z" fill="white"/>
<path opacity="0.56" d="M23.4024 23.9868H18.0938C17.9432 23.976 17.7973 23.9292 17.6687 23.8503C17.54 23.7713 17.4323 23.6626 17.3545 23.5332V23.5332L27.1154 40.8204C27.1901 40.9498 27.298 41.057 27.4279 41.1308C27.5579 41.2047 27.7051 41.2425 27.8545 41.2404C27.949 41.2564 28.0456 41.2564 28.1402 41.2404C29.2503 40.8407 30.3239 40.3461 31.349 39.762C31.4451 39.7081 31.5293 39.6354 31.5968 39.5482C31.6642 39.4611 31.7135 39.3613 31.7417 39.2548C31.7699 39.1482 31.7766 39.0371 31.761 38.928C31.7455 38.8189 31.7081 38.714 31.6513 38.6196L23.4024 23.9868Z" fill="white"/>
</g>
<path d="M65.6485 14.8065V32.605H62.5187V14.8065H57.75V11.8648H70.4037V14.8065H65.6485Z" fill="white"/>
<path d="M81.1097 19.5215H84.1455V32.605H81.1097V31.2349C79.8649 32.3991 78.5261 32.9812 77.0933 32.9812C75.2843 32.9812 73.7888 32.3274 72.6067 31.02C71.4336 29.6856 70.847 28.02 70.847 26.023C70.847 24.0618 71.4336 22.4274 72.6067 21.12C73.7798 19.8125 75.2485 19.1588 77.0127 19.1588C78.5351 19.1588 79.9007 19.7856 81.1097 21.0394V19.5215ZM73.9366 26.023C73.9366 27.2767 74.2724 28.2976 74.944 29.0856C75.6336 29.8827 76.5022 30.2812 77.55 30.2812C78.6694 30.2812 79.5739 29.8961 80.2634 29.1259C80.953 28.3289 81.2978 27.317 81.2978 26.0901C81.2978 24.8633 80.953 23.8513 80.2634 23.0543C79.5739 22.2752 78.6784 21.8856 77.5769 21.8856C76.5381 21.8856 75.6694 22.2797 74.9709 23.0677C74.2813 23.8648 73.9366 24.8498 73.9366 26.023Z" fill="white"/>
<path d="M90.9828 19.5215V32.605H87.9604V19.5215H90.9828ZM87.5037 14.0812C87.5037 13.5528 87.6963 13.0961 88.0813 12.711C88.4664 12.3259 88.9276 12.1334 89.4649 12.1334C90.0112 12.1334 90.4769 12.3259 90.8619 12.711C91.247 13.0871 91.4395 13.5483 91.4395 14.0946C91.4395 14.6409 91.247 15.1065 90.8619 15.4916C90.4858 15.8767 90.0246 16.0692 89.4784 16.0692C88.9321 16.0692 88.4664 15.8767 88.0813 15.4916C87.6963 15.1065 87.5037 14.6364 87.5037 14.0812Z" fill="white"/>
<path d="M97.8336 9.91699V32.605H94.8112V9.91699H97.8336Z" fill="white"/>
<path d="M112.905 21.8051H121.475V22.4901C121.475 24.0483 121.292 25.4274 120.925 26.6274C120.566 27.7379 119.962 28.7767 119.111 29.7439C117.186 31.911 114.737 32.9946 111.763 32.9946C108.862 32.9946 106.377 31.9468 104.308 29.8513C102.24 27.7468 101.205 25.2215 101.205 22.2752C101.205 19.2662 102.257 16.714 104.362 14.6185C106.466 12.514 109.028 11.4618 112.046 11.4618C113.666 11.4618 115.18 11.7931 116.586 12.4558C117.929 13.1185 119.25 14.1931 120.548 15.6797L118.319 17.8155C116.617 15.5498 114.544 14.417 112.099 14.417C109.905 14.417 108.065 15.1737 106.578 16.6871C105.092 18.1737 104.348 20.0364 104.348 22.2752C104.348 24.5856 105.177 26.4886 106.834 27.9842C108.383 29.3722 110.062 30.0662 111.871 30.0662C113.411 30.0662 114.795 29.5468 116.022 28.508C117.248 27.4603 117.934 26.2065 118.077 24.7468H112.905V21.8051Z" fill="white"/>
<path d="M124.847 19.5215H127.869V20.6901C128.425 20.108 128.917 19.7095 129.347 19.4946C129.786 19.2707 130.305 19.1588 130.905 19.1588C131.702 19.1588 132.535 19.4185 133.404 19.9379L132.02 22.7051C131.447 22.2931 130.887 22.0871 130.341 22.0871C128.693 22.0871 127.869 23.3319 127.869 25.8215V32.605H124.847V19.5215Z" fill="white"/>
<path d="M138.589 19.5215V32.605H135.566V19.5215H138.589ZM135.11 14.0812C135.11 13.5528 135.302 13.0961 135.687 12.711C136.072 12.3259 136.534 12.1334 137.071 12.1334C137.617 12.1334 138.083 12.3259 138.468 12.711C138.853 13.0871 139.046 13.5483 139.046 14.0946C139.046 14.6409 138.853 15.1065 138.468 15.4916C138.092 15.8767 137.631 16.0692 137.084 16.0692C136.538 16.0692 136.072 15.8767 135.687 15.4916C135.302 15.1065 135.11 14.6364 135.11 14.0812Z" fill="white"/>
<path d="M152.062 9.91699H155.098V32.605H152.062V31.2349C150.871 32.3991 149.523 32.9812 148.019 32.9812C146.228 32.9812 144.741 32.3274 143.559 31.02C142.386 29.6856 141.799 28.02 141.799 26.023C141.799 24.0707 142.386 22.4409 143.559 21.1334C144.723 19.817 146.187 19.1588 147.951 19.1588C149.483 19.1588 150.853 19.7856 152.062 21.0394V9.91699ZM144.889 26.023C144.889 27.2767 145.225 28.2976 145.896 29.0856C146.586 29.8827 147.454 30.2812 148.502 30.2812C149.622 30.2812 150.526 29.8961 151.216 29.1259C151.905 28.3289 152.25 27.317 152.25 26.0901C152.25 24.8633 151.905 23.8513 151.216 23.0543C150.526 22.2752 149.631 21.8856 148.529 21.8856C147.49 21.8856 146.622 22.2797 145.923 23.0677C145.234 23.8648 144.889 24.8498 144.889 26.023Z" fill="white"/>
<path d="M166.516 21.7513L164.017 23.0812C163.623 22.2752 163.135 21.8722 162.553 21.8722C162.275 21.8722 162.038 21.9662 161.841 22.1543C161.644 22.3334 161.546 22.5662 161.546 22.8528C161.546 23.3543 162.128 23.8513 163.292 24.3439C164.895 25.0334 165.974 25.6692 166.529 26.2513C167.084 26.8334 167.362 27.617 167.362 28.6021C167.362 29.8648 166.896 30.9215 165.965 31.7722C165.06 32.5782 163.968 32.9812 162.687 32.9812C160.493 32.9812 158.94 31.911 158.026 29.7707L160.605 28.5752C160.963 29.2021 161.237 29.6006 161.425 29.7707C161.792 30.111 162.231 30.2812 162.741 30.2812C163.762 30.2812 164.272 29.8155 164.272 28.8842C164.272 28.3468 163.878 27.8453 163.09 27.3797C162.786 27.2274 162.481 27.0797 162.177 26.9364C161.872 26.7931 161.563 26.6453 161.25 26.4931C160.372 26.0633 159.754 25.6334 159.396 25.2036C158.94 24.6573 158.711 23.9543 158.711 23.0946C158.711 21.9573 159.101 21.017 159.88 20.2737C160.677 19.5304 161.644 19.1588 162.781 19.1588C164.456 19.1588 165.701 20.023 166.516 21.7513Z" fill="white"/>
<defs>
<clipPath id="clip0_140_338">
<rect width="42" height="42" fill="white" transform="translate(0 0.466797)"/>
</clipPath>
</defs>
</svg>
