<svg width="24" height="27" viewBox="0 0 24 27" fill="none" xmlns="http://www.w3.org/2000/svg">
<path d="M11.9999 0.0351562C5.91865 0.0351562 0.931152 4.84766 0.931152 10.7102C0.931152 15.3914 7.6249 23.1352 10.5124 26.2852C10.9062 26.7227 11.4312 26.9414 11.9999 26.9414C12.5687 26.9414 13.0937 26.7227 13.4874 26.2852C16.3749 23.1789 23.0687 15.3914 23.0687 10.7102C23.0687 4.80391 18.0812 0.0351562 11.9999 0.0351562ZM12.3499 25.2352C12.1312 25.4539 11.8249 25.4539 11.6499 25.2352C9.50615 22.9164 2.4624 14.9539 2.4624 10.7102C2.4624 5.63516 6.7499 1.56641 11.9999 1.56641C17.2499 1.56641 21.5374 5.67891 21.5374 10.7102C21.5374 14.9539 14.4937 22.8727 12.3499 25.2352Z" fill="white"/>
<path d="M11.9999 6.33496C9.41865 6.33496 7.2749 8.43496 7.2749 11.06C7.2749 13.6412 9.3749 15.785 11.9999 15.785C14.6249 15.785 16.7249 13.685 16.7249 11.06C16.7249 8.43496 14.5812 6.33496 11.9999 6.33496ZM11.9999 14.21C10.2499 14.21 8.80615 12.7662 8.80615 11.0162C8.80615 9.26621 10.2499 7.82246 11.9999 7.82246C13.7499 7.82246 15.1937 9.26621 15.1937 11.0162C15.1937 12.7662 13.7499 14.21 11.9999 14.21Z" fill="white"/>
</svg>
