<svg width="34" height="21" viewBox="0 0 34 21" fill="none" xmlns="http://www.w3.org/2000/svg">
<path fill-rule="evenodd" clip-rule="evenodd" d="M6.65467 10.254L6.85 9.48296C7.60047 9.25679 9.13226 9.15398 9.42012 9.96614C9.5846 10.439 9.1117 12.4026 9.01918 12.9783L8.28926 12.9886C8.12478 12.783 8.25842 13.1634 8.14534 12.6596C7.44627 13.2867 5.9556 13.1839 6.06869 11.9194C6.18177 10.6652 7.2715 10.8297 8.45375 10.6446C8.43319 9.84277 7.42571 10.0587 6.64439 10.2437L6.65467 10.254ZM12.1547 10.1306C11.4865 10.1306 11.3837 9.9867 10.7977 10.2437C10.8697 10.9736 11.25 10.6858 11.7743 11.0353C12.7715 11.6933 11.7024 13.7288 9.32759 12.8549L9.46124 12.1148C10.1295 12.2484 10.4687 12.382 10.9827 12.0942C11.1061 11.0559 9.26591 11.7344 9.77993 10.0689C10.0575 9.16426 11.2809 9.28763 12.2884 9.38015L12.1444 10.1306H12.1547ZM1.91538 8.55771L3.48829 8.60912L3.65278 11.0764L4.50606 9.10258C4.79391 8.39323 4.59858 8.54743 6.40794 8.568L5.59579 12.9783L4.71167 12.968L5.19485 9.80165L3.88923 12.9886L2.83034 12.9577C2.7995 12.3409 2.7481 10.1717 2.58361 9.76053L2.04903 12.968L1.12379 12.9577L1.91538 8.55771ZM16.9146 17.9232L17.3463 17.4092C16.4828 17.2961 16.3286 17.5428 15.9379 16.8438L17.9221 16.8232C18.0454 16.6176 18.251 16.4223 18.3538 16.1858C16.0921 16.0316 15.4547 16.6073 15.0949 15.6204H18.7239L19.1249 14.9933L14.6426 14.9727L14.437 14.4484L19.2688 14.4279C19.5464 14.2736 19.5464 14.0989 19.6183 13.7802L15.0435 13.7699C14.2211 13.7802 14.1697 13.9652 14.0155 13.2148H19.7725L19.9576 12.5774L18.2716 12.5568L18.1893 12.9886L17.223 12.9475L17.8295 9.35959L18.7445 9.48296C18.7445 9.50352 18.765 9.57548 18.765 9.60632C18.765 9.62688 18.7753 9.65772 18.7753 9.668L18.8267 9.85305C19.0837 9.54464 19.2482 9.31847 19.8445 9.33903L19.5361 10.1717C19.3613 10.3979 18.8473 10.1409 18.6314 10.7577L19.6389 10.7989C19.752 10.1512 19.8753 9.95586 20.0604 9.43155L20.0707 9.12314L13.7687 9.13342L13.7482 9.35959C14.0874 9.35959 14.0772 9.29791 14.2725 9.46239L14.18 10.0689C13.5426 10.2231 13.5631 9.84277 13.5015 10.6755C13.594 10.8297 13.4809 10.7475 13.6762 10.7989L14.0772 10.8091C14.7248 8.70164 16.6576 9.16426 17.0996 9.82221C17.3361 10.1717 17.5725 11.3232 16.9865 11.4157L15.023 11.4362C15.1155 12.4746 16.308 12.2587 17.0791 12.0017C17.0482 12.4334 17.0791 12.783 16.6781 12.9269C16.3594 13.04 15.6912 13.0092 15.3417 12.9269C14.4781 12.7316 14.108 12.2998 14.0463 11.3643L13.6762 11.354C13.337 11.1998 13.6043 11.354 13.4295 10.9325C13.2856 11.7961 12.8949 12.3512 13.9641 12.2278C13.9024 12.7419 13.9744 12.9166 13.4089 12.9783C11.7641 13.1736 12.2986 12.0736 12.5659 10.6035C12.9874 8.25958 12.6585 8.54743 13.851 8.568L19.9781 8.57828L19.8548 7.94089L13.9332 7.92033L14.0463 7.4063L19.6492 7.37546C19.5052 6.50162 19.4744 6.71751 17.4389 6.71751H14.3342C14.5501 5.96704 14.437 6.17265 16.4519 6.17265H19.1763L18.8884 5.52498L14.9407 5.5147L15.208 4.98012L18.508 4.95956C18.0865 4.096 18.1071 4.34273 15.7734 4.30161C16.0716 3.56141 16.5959 3.74646 17.5108 3.74646C17.2538 3.33524 17.0688 3.36609 16.9146 3.01655C16.5342 2.82122 16.1949 2.47169 15.8146 2.20439C12.9052 0.148302 8.95749 -0.0675872 5.79111 1.47448C2.94343 2.85206 0.147146 6.039 0.177987 10.4493C0.219109 16.7512 5.74999 21.3466 12.0108 20.2774C14.951 19.7737 15.6912 18.5812 16.9043 17.9129L16.9146 17.9232Z" fill="#8D99A3"/>
<path fill-rule="evenodd" clip-rule="evenodd" d="M23.6275 9.45293C26.8144 8.80526 26.2901 10.3782 26.0331 11.653C25.9509 12.0333 25.9509 12.7838 25.6527 12.9894C25.5808 12.9894 25.1593 12.9997 25.1181 12.9791C24.8303 12.866 24.9639 13.2053 24.9228 12.681C24.0593 13.1745 22.692 13.2875 22.8564 11.91C22.9901 10.81 24.1004 10.6352 25.2312 10.6866C25.1901 9.87443 24.4499 10.0081 23.4219 10.2651L23.6378 9.45293H23.6275ZM26.7733 9.36041L27.6266 9.37069C27.6369 9.39125 27.6471 9.42209 27.6471 9.44265L27.7808 9.82303C27.935 9.58658 28.2228 9.38097 28.6752 9.37069L28.5518 10.1006L28.1303 10.2651C27.2873 10.5427 27.3387 11.6015 27.1126 12.9894H26.1565L26.7733 9.36041ZM31.307 8.57909H32.1808L31.4303 12.9997C30.4537 13.01 30.6902 13.0614 30.3817 12.6913C29.7444 13.6371 27.8322 12.7632 28.4182 10.81C28.85 9.35013 30.3098 8.95947 31.0294 9.82303L31.3173 8.56881L31.307 8.57909ZM16.9246 3.02764C17.0788 3.37718 17.2742 3.34634 17.5209 3.75756C16.6059 3.75756 16.0816 3.56223 15.7835 4.3127C18.1172 4.35382 18.0966 4.10709 18.5181 4.97065L15.2181 4.99121L14.9508 5.5258L18.8985 5.53608L19.1863 6.18375H16.462C14.4573 6.18375 14.5601 5.98842 14.3442 6.72861H17.4489C19.4845 6.72861 19.5153 6.51272 19.6592 7.38656L14.0564 7.4174L13.9433 7.93142L19.8648 7.95198L19.9882 8.58937L13.8611 8.57909L13.7788 9.1548L20.0807 9.14452L20.0704 9.45293C20.5433 9.00059 20.4611 8.76414 21.3452 8.50713C22.0751 8.30152 22.5378 8.45573 23.2574 8.60993L23.1032 9.55574C21.8695 9.18564 21.0676 9.27816 20.7798 10.5529C20.4611 11.9202 21.5406 12.4343 22.6817 11.8894C22.5789 12.8866 22.4144 13.1333 21.2424 12.9791C20.4303 12.8763 20.1835 12.4857 19.8237 12.0025H18.3536L18.2714 12.5679L19.9574 12.5885L19.7723 13.2259H14.0153C14.1695 13.9763 14.2209 13.7913 15.0433 13.781L19.6181 13.7913C19.5359 14.0997 19.5461 14.2847 19.2686 14.439L14.4368 14.4595L14.6424 14.9838L19.1246 15.0044L18.7237 15.6315H15.0947C15.4545 16.6081 16.0919 16.0427 18.3536 16.1969C18.2508 16.4334 18.0452 16.6287 17.9218 16.8343L15.9377 16.8549C16.3181 17.5437 16.4826 17.3072 17.3461 17.4203L16.9143 17.9343C18.3845 19.0138 19.5256 19.9184 21.9004 20.3297C24.0593 20.6998 26.3107 20.2885 28.0481 19.4353C35.5734 15.724 35.3678 5.03233 27.9864 1.49586C25.334 0.231359 21.8181 0.118274 19.0732 1.55754C17.7471 2.24633 17.4284 2.73979 16.9349 3.03793L16.9246 3.02764Z" fill="#A6AEB6"/>
<path fill-rule="evenodd" clip-rule="evenodd" d="M1.12305 12.9695L2.04831 12.9798L2.58291 9.77219C2.7474 10.1834 2.79881 12.3527 2.82965 12.9695L3.88856 13.0003L5.19421 9.81331L4.71102 12.9798L5.59516 12.9901L6.40734 8.57963C4.59793 8.55907 4.79327 8.40486 4.50541 9.11423L3.65211 11.0881L3.48761 8.62075L1.91466 8.56935L1.12305 12.9695ZM29.7651 12.1573C28.9941 11.3657 29.6521 10.0498 30.3717 10.2245C31.0811 10.3993 30.9474 12.1368 29.7651 12.1573ZM31.0194 9.8236C30.2997 8.96002 28.8502 9.35068 28.4081 10.8105C27.8221 12.7536 29.7343 13.6377 30.3717 12.6919C30.6801 13.062 30.4437 13.0003 31.4203 13.0003L32.1708 8.57963H31.297L31.0091 9.83388L31.0194 9.8236ZM23.9565 12.1676C23.8126 11.4788 24.45 11.2115 25.0566 11.3349C25.0874 12.034 24.5939 12.4143 23.9565 12.1676ZM23.6276 9.46377L23.4117 10.2759C24.4397 10.0292 25.1902 9.89556 25.2211 10.6975C24.0902 10.6461 22.9799 10.8208 22.8462 11.9209C22.6714 13.2985 24.0491 13.1854 24.9126 12.6919C24.9538 13.2162 24.8201 12.877 25.108 12.9901C25.1491 13.0106 25.5706 13.0003 25.6426 13.0003C25.951 12.805 25.951 12.0442 26.023 11.6638C26.2903 10.3788 26.8043 8.81608 23.6173 9.46377H23.6276ZM8.28871 11.304C8.30927 11.6536 8.24759 11.9209 8.02141 12.0956C7.8672 12.2087 7.40457 12.3424 7.21952 12.1676C6.6438 11.6433 7.72327 11.2937 8.27843 11.304H8.28871ZM6.65408 10.2554C7.43541 10.0703 8.44292 9.85444 8.46348 10.6563C7.2812 10.8414 6.19144 10.6769 6.07836 11.9311C5.95499 13.1957 7.44569 13.2985 8.15506 12.6714C8.26815 13.1751 8.1345 12.7947 8.29899 13.0003L9.02892 12.9901C9.12145 12.4041 9.59437 10.4507 9.42987 9.97781C9.14201 9.15535 7.62047 9.25816 6.85969 9.49461L6.66436 10.2657L6.65408 10.2554ZM15.1768 10.7694C15.3104 10.2451 15.5366 10.0292 16.1432 10.1115C16.3591 10.4199 16.3591 10.3274 16.4002 10.7694H15.1768ZM14.087 10.8208L14.0459 11.376C14.1076 12.3115 14.488 12.733 15.3413 12.9387C15.6908 13.0209 16.3591 13.0517 16.6778 12.9387C17.0787 12.805 17.0479 12.4452 17.0787 12.0134C16.3077 12.2704 15.1151 12.4863 15.0226 11.4479L16.9862 11.4274C17.5722 11.3349 17.3358 10.1937 17.0993 9.83388C16.6572 9.17591 14.7244 8.71328 14.0768 10.8208H14.087ZM20.0704 9.45349C19.8854 9.97781 19.762 10.1731 19.6489 10.8208V11.3863L19.8237 12.0134C20.1835 12.4966 20.4303 12.8873 21.2424 12.9901C22.4144 13.1443 22.5789 12.8975 22.6817 11.9003C21.5303 12.4452 20.4611 11.9311 20.7798 10.5638C21.0779 9.27872 21.8798 9.19647 23.1032 9.56658L23.2574 8.62075C22.5378 8.47682 22.0752 8.32261 21.3452 8.51794C20.4611 8.76468 20.5433 9.01142 20.0704 9.46377V9.45349ZM12.2879 9.38152C11.2804 9.29928 10.057 9.16563 9.77942 10.0703C9.26538 11.7358 11.0954 11.0573 10.9823 12.0956C10.4579 12.3835 10.129 12.2498 9.46072 12.1162L9.32707 12.8564C11.7019 13.7303 12.7608 11.705 11.7739 11.0367C11.2496 10.6872 10.8692 10.9853 10.7972 10.2451C11.3832 9.97781 11.4757 10.132 12.1543 10.132L12.2982 9.38152H12.2879Z" fill="#FEFEFE"/>
<path fill-rule="evenodd" clip-rule="evenodd" d="M13.4398 10.9436L13.5118 10.6969C13.5735 9.8642 13.5529 10.2446 14.1903 10.0904L14.2828 9.48382C14.0875 9.31933 14.0978 9.38101 13.7585 9.38101L13.7791 9.15484L13.8613 8.57914C12.6688 8.55858 12.9978 8.27072 12.5763 10.6147C12.309 12.0848 11.7744 13.1848 13.4193 12.9895C13.9744 12.9278 13.9127 12.753 13.9744 12.239C12.9155 12.3623 13.3062 11.8072 13.4398 10.9436ZM18.2717 12.5782L18.3539 12.0128L18.4567 11.396L18.6417 10.7792C18.8679 10.1623 19.3819 10.4193 19.5464 10.1932L19.8548 9.36045C19.2483 9.33989 19.0838 9.56606 18.8371 9.87448L18.7857 9.68943C18.7857 9.67915 18.7754 9.64831 18.7754 9.62774C18.7754 9.60718 18.7548 9.52494 18.7548 9.50438L17.8399 9.38101L17.2333 12.9689L18.1997 13.01L18.2819 12.5782H18.2717ZM26.1568 12.9895H27.1128C27.339 11.6016 27.2876 10.5427 28.1306 10.2651L28.5521 10.1006L28.6755 9.37073C28.2231 9.38101 27.9353 9.58662 27.7811 9.82307L27.6474 9.4427C27.6371 9.42214 27.6371 9.39129 27.6269 9.37073L26.7736 9.36045L26.1568 12.9895Z" fill="#FEFEFE"/>
<path fill-rule="evenodd" clip-rule="evenodd" d="M29.7637 12.1526C30.9562 12.1321 31.0899 10.3947 30.3702 10.2199C29.6403 10.0451 28.9927 11.361 29.7637 12.1526Z" fill="#A6AEB6"/>
<path fill-rule="evenodd" clip-rule="evenodd" d="M8.28905 11.302C7.7339 11.2917 6.65445 11.6412 7.23016 12.1655C7.41521 12.33 7.87783 12.1964 8.03203 12.0936C8.2582 11.9291 8.30961 11.6515 8.29933 11.302H8.28905ZM18.3536 12.001L19.8237 12.0113L19.6489 11.3842H18.4564L18.3536 12.001Z" fill="#8D99A3"/>
<path fill-rule="evenodd" clip-rule="evenodd" d="M23.9571 12.1687C24.6047 12.4051 25.0879 12.035 25.0571 11.3359C24.4402 11.2228 23.8131 11.4901 23.9571 12.1687ZM18.457 11.3873H19.6496V10.8219L18.6421 10.7705L18.457 11.3873Z" fill="#A6AEB6"/>
<path fill-rule="evenodd" clip-rule="evenodd" d="M15.1772 10.7677H16.4006C16.3698 10.3359 16.3595 10.4182 16.1436 10.1098C15.5371 10.0275 15.3109 10.2434 15.1772 10.7677Z" fill="#8D99A3"/>
<path fill-rule="evenodd" clip-rule="evenodd" d="M13.4399 10.9474C13.6147 11.3689 13.3474 11.2147 13.6867 11.3689L14.0567 11.3792L14.0979 10.8241L13.6969 10.8138C13.4913 10.7727 13.6044 10.8446 13.5222 10.6904L13.4502 10.9372L13.4399 10.9474Z" fill="#8D99A3"/>
</svg>
