<svg width="74" height="19" viewBox="0 0 74 19" fill="none" xmlns="http://www.w3.org/2000/svg">
<path fill-rule="evenodd" clip-rule="evenodd" d="M28.3578 4.50488C30.0606 4.50488 31.6319 5.42861 31.4169 7.73076C31.1564 10.4668 29.6906 11.9807 27.3781 11.9872H25.3573C25.0668 11.9872 24.9261 12.2243 24.8505 12.7103L24.4597 15.1948C24.401 15.57 24.2082 15.7551 23.9242 15.7551H22.0442C21.7445 15.7551 21.6403 15.5635 21.7067 15.1349L23.2584 5.17716C23.3353 4.68728 23.519 4.50488 23.8538 4.50488H28.3539H28.3578ZM25.2961 9.83617H26.827C27.7846 9.79969 28.4203 9.13654 28.4842 7.94052C28.5233 7.2018 28.0243 6.67283 27.2308 6.67674L25.7899 6.68326L25.2961 9.83617ZM36.528 14.9929C36.7 14.8365 36.8746 14.7558 36.8498 14.9486L36.7886 15.4098C36.7573 15.6508 36.8524 15.7785 37.0765 15.7785H38.7468C39.0282 15.7785 39.165 15.6652 39.2341 15.23L40.2633 8.77043C40.3154 8.44602 40.236 8.28708 39.9897 8.28708H38.1527C37.9872 8.28708 37.9065 8.37958 37.8635 8.63233L37.7957 9.0297C37.7605 9.23686 37.6654 9.27334 37.5768 9.06488C37.2655 8.32746 36.4707 7.99654 35.362 8.0226C32.7862 8.07601 31.0495 10.0316 30.8632 12.5383C30.7199 14.4769 32.1087 16 33.9406 16C35.2695 16 35.8636 15.6091 36.5332 14.9968L36.528 14.9929ZM35.1288 13.9988C34.02 13.9988 33.2474 13.1142 33.4077 12.0302C33.5679 10.9462 34.605 10.0616 35.7137 10.0616C36.8225 10.0616 37.5951 10.9462 37.4348 12.0302C37.2746 13.1142 36.2388 13.9988 35.1288 13.9988ZM43.5322 8.26623H41.8385C41.4893 8.26623 41.3473 8.5268 41.458 8.8473L43.5609 15.0046L41.4984 17.9347C41.3252 18.1797 41.4594 18.4025 41.703 18.4025H43.6065C43.7174 18.4153 43.8297 18.3959 43.9299 18.3467C44.0302 18.2975 44.1142 18.2205 44.1719 18.1249L50.6393 8.84861C50.8386 8.56328 50.7448 8.26363 50.4178 8.26363H48.616C48.3072 8.26363 48.1834 8.38609 48.0062 8.64276L45.3093 12.5513L44.1042 8.63364C44.0338 8.39652 43.8579 8.26623 43.5335 8.26623H43.5322Z" fill="#8D99A3"/>
<path fill-rule="evenodd" clip-rule="evenodd" d="M57.3682 4.50456C59.0711 4.50456 60.6423 5.42829 60.4273 7.73044C60.1668 10.4664 58.7011 11.9804 56.3885 11.9869H54.3691C54.0785 11.9869 53.9378 12.224 53.8622 12.71L53.4714 15.1945C53.4128 15.5697 53.2199 15.7547 52.9359 15.7547H51.0559C50.7562 15.7547 50.652 15.5632 50.7184 15.1346L52.2728 5.17423C52.3496 4.68435 52.5333 4.50195 52.8682 4.50195H57.3682V4.50456ZM54.3065 9.83585H55.8374C56.795 9.79937 57.4308 9.13622 57.4946 7.94019C57.5337 7.20147 57.0347 6.67251 56.2413 6.67642L54.8003 6.68294L54.3065 9.83585ZM65.5385 14.9926C65.7104 14.8362 65.885 14.7554 65.8603 14.9483L65.799 15.4095C65.7678 15.6505 65.8629 15.7782 66.087 15.7782H67.7572C68.0386 15.7782 68.1754 15.6648 68.2445 15.2297L69.2738 8.77011C69.3259 8.4457 69.2464 8.28675 69.0002 8.28675H67.1657C67.0003 8.28675 66.9195 8.37926 66.8765 8.63201L66.8087 9.02938C66.7736 9.23653 66.6785 9.27302 66.5899 9.06456C66.2785 8.32714 65.4837 7.99622 64.375 8.02227C61.7993 8.07569 60.0625 10.0313 59.8762 12.538C59.7329 14.4766 61.1218 15.9997 62.9536 15.9997C64.2825 15.9997 64.8766 15.6088 65.5463 14.9965L65.5385 14.9926ZM64.1405 13.9985C63.0318 13.9985 62.2592 13.1138 62.4194 12.0299C62.5797 10.9459 63.6167 10.0612 64.7255 10.0612C65.8342 10.0612 66.6068 10.9459 66.4466 12.0299C66.2863 13.1138 65.2492 13.9985 64.1405 13.9985ZM71.8443 15.7886H69.9161C69.8825 15.7901 69.8491 15.7842 69.8181 15.7713C69.7871 15.7583 69.7594 15.7387 69.7368 15.7138C69.7143 15.6889 69.6975 15.6594 69.6878 15.6273C69.678 15.5951 69.6754 15.5613 69.6802 15.528L71.374 4.7977C71.3901 4.72447 71.4306 4.65887 71.4888 4.61156C71.547 4.56425 71.6195 4.53802 71.6945 4.53713H73.6227C73.6562 4.53563 73.6897 4.54156 73.7207 4.55448C73.7517 4.56741 73.7794 4.58702 73.8019 4.61191C73.8245 4.63681 73.8412 4.66637 73.851 4.69848C73.8608 4.7306 73.8633 4.76448 73.8585 4.7977L72.1648 15.528C72.1491 15.6017 72.1089 15.6679 72.0507 15.7158C71.9924 15.7636 71.9196 15.7902 71.8443 15.7912V15.7886Z" fill="#8D99A3"/>
<path fill-rule="evenodd" clip-rule="evenodd" d="M3.28819 0.519531H8.34066C9.76338 0.519531 11.4519 0.565131 12.5802 1.56182C13.3345 2.22758 13.7306 3.2868 13.6394 4.4281C13.3293 8.28586 11.0219 10.4473 7.92635 10.4473H5.43529C5.01056 10.4473 4.73045 10.7287 4.61059 11.4896L3.91486 15.9193C3.86926 16.2059 3.74549 16.3753 3.524 16.3961H0.406272C0.0610153 16.3961 -0.0614543 16.1356 0.0284427 15.5597L2.26935 1.36118C2.35925 0.790524 2.67324 0.519531 3.28819 0.519531Z" fill="#8D99A3"/>
<path fill-rule="evenodd" clip-rule="evenodd" d="M6.44483 4.73242H11.4921C14.202 4.73242 15.2222 6.10433 15.0645 8.11985C14.804 11.4473 12.7923 13.2883 10.1241 13.2883H8.77694C8.41084 13.2883 8.1646 13.5306 8.06558 14.1873L7.49363 18.0046C7.45584 18.2522 7.32556 18.3955 7.13013 18.415H3.95897C3.66062 18.415 3.55509 18.187 3.63326 17.6932L5.5667 5.45551C5.64227 4.96564 5.91065 4.73242 6.44483 4.73242Z" fill="#A6AEB6"/>
<path fill-rule="evenodd" clip-rule="evenodd" d="M4.68311 11.0402L5.56514 5.45486C5.64201 4.96499 5.9104 4.73047 6.44457 4.73047H11.4918C12.327 4.73047 13.0032 4.86076 13.5321 5.10178C13.0253 8.53611 10.8039 10.4435 7.89595 10.4435H5.4088C5.07527 10.4448 4.83033 10.6116 4.68311 11.0402Z" fill="#A6AEB6"/>
</svg>
