<svg width="19" height="14" viewBox="0 0 19 14" fill="none" xmlns="http://www.w3.org/2000/svg">
<path d="M16.162 2.64538L17.2298 1.39953C17.5389 1.06212 17.6232 0.802566 17.6513 0.67279C16.8083 1.13998 16.0215 1.29571 15.5157 1.29571H15.319L15.2066 1.19189C14.5322 0.646835 13.6893 0.361328 12.7901 0.361328C10.8231 0.361328 9.27764 1.86673 9.27764 3.60572C9.27764 3.70954 9.27764 3.86528 9.30574 3.9691L9.39004 4.4882L8.79995 4.46224C5.20322 4.35842 2.25277 1.50336 1.77508 1.01021C0.988294 2.30797 1.43789 3.55381 1.91558 4.33247L2.87096 5.78596L1.35359 5.0073C1.38169 6.09742 1.83128 6.95394 2.70236 7.57686L3.46105 8.09597L2.70236 8.38147C3.18005 9.70519 4.24783 10.2502 5.03462 10.4579L6.0743 10.7174L5.09082 11.3404C3.51725 12.3786 1.55028 12.3007 0.679199 12.2228C2.44947 13.3649 4.55693 13.6244 6.0181 13.6244C7.11398 13.6244 7.92887 13.5206 8.12556 13.4427C15.9934 11.7297 16.3587 5.2409 16.3587 3.94314V3.76145L16.5273 3.65763C17.4827 2.82707 17.8761 2.38583 18.1009 2.12628C18.0166 2.15223 17.9042 2.20414 17.7918 2.2301L16.162 2.64538Z" fill="#CACBCF"/>
</svg>
