<svg width="53" height="18" viewBox="0 0 53 18" fill="none" xmlns="http://www.w3.org/2000/svg">
<path fill-rule="evenodd" clip-rule="evenodd" d="M37.6246 11.7812C37.6351 9.12766 35.4414 7.98197 33.7383 7.09176C32.6604 6.52881 31.7793 6.06839 31.7793 5.39397C31.7793 4.81913 32.3372 4.2105 33.5246 4.05334C34.9361 3.91408 36.3603 4.16071 37.6414 4.76745L38.3751 1.28638C37.1256 0.818929 35.8014 0.577245 34.4667 0.572266C30.3488 0.572266 27.4867 2.76534 27.4867 5.89829C27.4867 8.21366 29.5635 9.50166 31.134 10.2674C32.7045 11.0333 33.3151 11.5724 33.2972 12.2686C33.2972 13.3478 32.0067 13.835 30.8025 13.8529C29.3172 13.8719 27.8519 13.5128 26.5446 12.8086L25.794 16.2897C27.273 16.8656 28.8488 17.155 30.4361 17.1421C34.8151 17.1421 37.6951 14.9838 37.7119 11.642L37.6246 11.7812ZM26.3004 0.85175L22.8109 16.9511H18.6235L22.113 0.85175H26.3004ZM43.854 11.2939L46.0519 5.25481L47.3267 11.2939H43.854ZM52.3867 17.0038H48.513L48.0067 14.6019H42.7551L41.8993 17.0038H37.5025L43.7667 2.08702C44.0551 1.37689 44.7425 0.910424 45.5119 0.903466H49.0014L52.3867 17.0038ZM13.6498 16.8984L20.4204 0.799034H15.8835L11.5393 11.7464L9.79404 2.43513C9.6393 1.48828 8.81826 0.795055 7.8572 0.799034H0.756148L0.650879 1.26848C2.07509 1.54696 3.45929 2.00249 4.76876 2.62608C5.32665 2.88766 5.70456 3.42376 5.7635 4.03639L9.09615 16.8984H13.6498Z" fill="#8D99A3"/>
</svg>
